<!-- Generated by IcoMoon.io -->
<svg version="1.1" xmlns="http://www.w3.org/2000/svg" width="24" height="24" viewBox="0 0 24 24">
<title>halfazebra_lomo_lc_a_CCBY_3_0</title>
<path d="M10.483 8.164c0.522 0.052 1.053 0.078 1.577 0.078s1.054-0.026 1.575-0.078c0.279-0.027 0.563-0.292 0.62-0.577 0.13-0.645 0.13-0.979 0-1.624-0.058-0.285-0.342-0.55-0.62-0.577-1.042-0.103-2.108-0.103-3.152 0-0.278 0.028-0.563 0.292-0.62 0.577-0.131 0.645-0.131 0.979 0 1.624 0.058 0.286 0.342 0.55 0.62 0.577zM10.047 6c0.041-0.204 0.258-0.408 0.454-0.428 0.516-0.051 1.040-0.077 1.558-0.077s1.042 0.026 1.556 0.077c0.197 0.020 0.413 0.223 0.455 0.428 0.126 0.623 0.126 0.927 0 1.55-0.041 0.204-0.258 0.408-0.455 0.428-1.029 0.102-2.083 0.102-3.115 0-0.196-0.019-0.413-0.223-0.454-0.428-0.126-0.623-0.126-0.927 0-1.55zM13.635 10.819c-1.042-0.103-2.108-0.103-3.152 0-0.278 0.028-0.562 0.292-0.62 0.577-0.131 0.651-0.131 2.134 0 2.784 0.058 0.285 0.342 0.55 0.62 0.578 0.523 0.052 1.053 0.078 1.578 0.078s1.054-0.026 1.575-0.078c0.279-0.028 0.563-0.293 0.62-0.578 0.131-0.651 0.131-2.134 0-2.784-0.058-0.285-0.342-0.55-0.62-0.577zM10.501 11.006c0.107-0.011 0.214-0.016 0.321-0.024-0.408 0.281-0.709 0.687-0.852 1.157 0.016-0.278 0.041-0.528 0.077-0.706 0.041-0.204 0.258-0.407 0.454-0.427zM10.047 14.143c-0.038-0.188-0.065-0.456-0.079-0.754 0.147 0.495 0.468 0.924 0.901 1.208-0.122-0.009-0.245-0.015-0.367-0.027-0.197-0.020-0.413-0.224-0.455-0.428zM11.325 14.63c-0.766-0.304-1.261-1.028-1.261-1.853 0-0.793 0.468-1.508 1.193-1.826 0.268-0.014 0.536-0.021 0.803-0.021s0.535 0.007 0.802 0.021c0.724 0.319 1.192 1.034 1.192 1.826 0 0.812-0.506 1.554-1.261 1.853-0.488 0.023-0.978 0.023-1.467 0zM13.616 14.571c-0.122 0.012-0.245 0.018-0.367 0.027 0.433-0.285 0.754-0.714 0.901-1.209-0.015 0.298-0.041 0.565-0.079 0.754-0.041 0.204-0.258 0.408-0.455 0.428zM14.147 12.14c-0.143-0.47-0.444-0.877-0.852-1.158 0.107 0.008 0.215 0.013 0.321 0.024 0.196 0.020 0.413 0.223 0.455 0.427 0.036 0.178 0.061 0.428 0.077 0.707zM22.259 5.932l-1.264-0c-0.021-0.117-0.122-0.211-0.298-0.265s-0.367-0.083-0.582-0.087c-0.44-0.010-0.886 0.001-1.319 0.012l-0.083 0.002c-0.164 0.004-0.403 0.139-0.435 0.337l-0.799-0c-0.392 0-0.862-0.208-1.405-0.449-0.232-0.103-0.814-0.343-0.838-0.352l-0.001 0.002c-1.017-0.412-2.216-0.476-3.196-0.476-1.038 0-2.2 0.066-3.198 0.476l-0-0.001c-0.011 0.004-0.079 0.029-0.102 0.039h-1.21c-0.198 0-0.359 0.161-0.359 0.359v0.292c-0.204 0.067-0.395 0.109-0.569 0.109l-3.003 0.002v-0.036c0-0.19-0.155-0.345-0.345-0.345h-0.842c-0.19 0-0.345 0.155-0.345 0.345v0.036h-0.247c-0.537 0-0.973 0.437-0.973 0.973v4.432h-0.083v1.301h0.083v1.47h-0.083v1.917h0.083v2.344c0 0.538 0.437 0.976 0.973 0.976h20.439c0.538 0 0.976-0.438 0.976-0.976v-11.464c-0-0.537-0.438-0.974-0.976-0.974zM18.718 5.782l0.084-0.002c0.43-0.011 0.875-0.022 1.31-0.012 0.198 0.004 0.371 0.029 0.53 0.078 0.059 0.018 0.124 0.049 0.155 0.085l-2.32-0.001c0.036-0.075 0.152-0.146 0.241-0.148zM22.259 6.12c0.434 0 0.787 0.352 0.787 0.785v2.031c-0.431-0.162-0.927-0.255-1.185-0.279h-5.464c-0.018-0.771-0.040-1.55-0.070-2.35-0.009-0.216-0.089-0.427-0.222-0.606 0.517 0.228 0.969 0.417 1.373 0.417l4.78 0.002zM22.883 17.792c-0.018-0.036-0.055-0.062-0.099-0.062s-0.081 0.026-0.099 0.062h-0.784c-0.018-0.036-0.056-0.062-0.099-0.062s-0.080 0.026-0.099 0.062h-0.785c-0.018-0.036-0.055-0.062-0.099-0.062s-0.080 0.026-0.099 0.062h-0.785c-0.018-0.036-0.055-0.062-0.099-0.062s-0.080 0.026-0.099 0.062h-0.785c-0.018-0.036-0.055-0.062-0.099-0.062s-0.080 0.026-0.099 0.062h-0.785c-0.018-0.036-0.055-0.062-0.099-0.062s-0.080 0.026-0.099 0.062h-0.785c-0.018-0.036-0.056-0.062-0.099-0.062s-0.080 0.026-0.099 0.062h-0.483c0-0.008 0.003-0.016 0.004-0.025 0.002-0.045 0.003-0.088 0.005-0.132 0.020 0.023 0.049 0.038 0.082 0.038 0.062 0 0.112-0.050 0.112-0.112s-0.050-0.112-0.112-0.112c-0.030 0-0.057 0.012-0.077 0.031 0.005-0.131 0.009-0.26 0.014-0.391 0.018 0.013 0.039 0.022 0.063 0.022 0.062 0 0.112-0.050 0.112-0.111s-0.050-0.112-0.112-0.112c-0.021 0-0.039 0.007-0.056 0.018 0.005-0.121 0.009-0.243 0.013-0.363 0.013 0.005 0.028 0.009 0.043 0.009 0.062 0 0.112-0.050 0.112-0.112s-0.050-0.112-0.112-0.112c-0.013 0-0.024 0.004-0.036 0.007 0.004-0.117 0.006-0.233 0.010-0.35 0.008 0.002 0.017 0.005 0.026 0.005 0.062 0 0.112-0.050 0.112-0.112s-0.050-0.112-0.112-0.112c-0.007 0-0.013 0.003-0.020 0.005 0.001-0.044 0.003-0.087 0.004-0.131 0.042 0.014 0.088 0.024 0.141 0.024 0.123 0 0.222-0.1 0.222-0.223v-0.387c0-0.123-0.099-0.223-0.222-0.223-0.046 0-0.084 0.007-0.12 0.017 0-0.002 0-0.004 0-0.006 0.195-0.045 0.341-0.22 0.341-0.429v-1.707l0.079-0.003c-0.027 0.021-0.046 0.051-0.046 0.088 0 0.062 0.050 0.112 0.112 0.112s0.112-0.050 0.112-0.112c0-0.040-0.022-0.073-0.053-0.092l0.014-0c0.128 0.129 0.304 0.209 0.498 0.209 0.025 0 0.050-0.001 0.075-0.004l0.263-0.028c0.020 0.017 0.045 0.028 0.074 0.028 0.040 0 0.074-0.023 0.093-0.056 0.145-0.036 0.274-0.115 0.371-0.232 0.009 0.003 0.017 0.005 0.026 0.005 0.062 0 0.112-0.050 0.112-0.111 0-0.029-0.012-0.056-0.031-0.076 0.044-0.108 0.065-0.224 0.052-0.343-0.005-0.043-0.014-0.084-0.026-0.124 0.001-0.006 0.005-0.011 0.005-0.018 0-0.038-0.019-0.070-0.047-0.090-0.124-0.259-0.397-0.429-0.708-0.395l-0.333 0.035c-0.148 0.016-0.28 0.077-0.385 0.168-0-0.061-0.050-0.111-0.112-0.111s-0.112 0.050-0.112 0.112c0 0.062 0.050 0.112 0.112 0.112 0.004 0 0.007-0.002 0.010-0.002-0.016 0.021-0.031 0.044-0.044 0.067l-0.112 0.005v-0.3c0-0.199-0.132-0.365-0.312-0.42-0-0.066-0-0.132-0.001-0.199 0.045-0.014 0.079-0.055 0.079-0.105s-0.034-0.091-0.080-0.105c-0.001-0.116-0.003-0.233-0.004-0.35 0.048-0.013 0.084-0.055 0.084-0.106s-0.037-0.095-0.087-0.107c-0.001-0.115-0.003-0.231-0.005-0.347 0.051-0.010 0.091-0.053 0.091-0.108 0-0.056-0.041-0.1-0.095-0.109-0.002-0.115-0.003-0.229-0.005-0.344 0.056-0.007 0.099-0.052 0.099-0.109 0-0.059-0.046-0.106-0.104-0.11-0.001-0.062-0.003-0.124-0.005-0.186h0.379c-0.001 0.005-0.003 0.010-0.003 0.016 0 0.062 0.050 0.112 0.112 0.112s0.112-0.050 0.112-0.112c0-0.006-0.003-0.011-0.003-0.016h0.765c-0.001 0.005-0.003 0.010-0.003 0.016 0 0.062 0.050 0.112 0.112 0.112s0.112-0.050 0.112-0.112c0-0.006-0.003-0.011-0.003-0.016h0.765c-0.001 0.005-0.003 0.010-0.003 0.016 0 0.062 0.050 0.112 0.112 0.112s0.112-0.050 0.112-0.112c0-0.006-0.003-0.011-0.003-0.016h0.765c-0.001 0.006-0.003 0.011-0.003 0.016 0 0.062 0.050 0.112 0.112 0.112s0.112-0.050 0.112-0.112c0-0.006-0.003-0.011-0.003-0.016h0.765c-0.001 0.005-0.003 0.010-0.003 0.016 0 0.062 0.050 0.112 0.112 0.112s0.112-0.050 0.112-0.112c0-0.006-0.003-0.011-0.003-0.016h0.765c-0.001 0.006-0.003 0.011-0.003 0.016 0 0.062 0.050 0.112 0.112 0.112s0.112-0.050 0.112-0.112c0-0.003-0.002-0.006-0.002-0.009 0.267 0.031 0.738 0.126 1.135 0.286v8.654h-0.161zM18.31 12.111c0.015 0.137-0.025 0.272-0.112 0.38s-0.21 0.175-0.348 0.189l-0.333 0.035c-0.254 0.028-0.481-0.133-0.55-0.367l0.604-0.065-0.020-0.188-0.604 0.065c0.019-0.244 0.209-0.448 0.46-0.475l0.333-0.035c0.019-0.002 0.037-0.003 0.056-0.003 0.265 0 0.486 0.199 0.514 0.463zM16.76 12.276c0.009 0.085 0.034 0.165 0.070 0.238l-0.397 0.015c0.001-0.159 0.003-0.318 0.003-0.477l0.343-0.016c-0.018 0.076-0.027 0.156-0.018 0.239zM16.432 12.718l0.124-0.005v1.7c0 0.103-0.062 0.191-0.149 0.231 0.013-0.646 0.021-1.287 0.025-1.926zM16.556 11.858l-0.121 0.006c0-0.175-0.001-0.351-0.002-0.526 0.072 0.044 0.123 0.121 0.123 0.212v0.308zM16.401 15.054c0-0.006 0.032-0.034 0.122-0.034 0.019 0 0.034 0.015 0.034 0.034v0.386c0 0.019-0.015 0.034-0.034 0.034-0.079 0-0.119-0.028-0.122-0.034v-0.386zM12.043 4.843c0.975 0 2.175 0.062 3.17 0.479 0.018 0.007 0.325 0.148 0.454 0.223 0.275 0.17 0.46 0.472 0.472 0.769 0.149 3.967 0.144 7.497-0.017 11.445-0.020 0.443-0.405 0.858-0.839 0.907-1.085 0.102-2.177 0.154-3.244 0.154s-2.158-0.052-3.24-0.154c-0.436-0.049-0.822-0.464-0.842-0.906-0.16-3.965-0.165-7.495-0.016-11.445 0.013-0.301 0.192-0.595 0.467-0.766 0.125-0.073 0.254-0.138 0.387-0.197 0.037-0.015 0.073-0.030 0.111-0.045 0.969-0.4 2.112-0.464 3.136-0.464zM7.167 17.792c-0.018-0.036-0.055-0.062-0.099-0.062s-0.080 0.026-0.099 0.062h-0.785c-0.018-0.036-0.055-0.062-0.099-0.062s-0.080 0.026-0.099 0.062h-0.785c-0.019-0.036-0.056-0.062-0.099-0.062-0 0-0 0-0 0-0.043 0-0.080 0.026-0.099 0.062h-0.785c-0.018-0.036-0.055-0.062-0.099-0.062s-0.080 0.026-0.099 0.062h-0.785c-0.019-0.036-0.056-0.062-0.099-0.062s-0.080 0.026-0.099 0.062h-0.785c-0.018-0.036-0.055-0.062-0.099-0.062s-0.080 0.026-0.099 0.062h-0.783c-0.019-0.036-0.056-0.063-0.099-0.063s-0.080 0.026-0.099 0.062h-0.039v-8.654c0.343-0.138 0.74-0.227 1.010-0.269 0.004 0.058 0.051 0.105 0.11 0.105 0.062 0 0.112-0.050 0.112-0.112 0-0.006-0.003-0.011-0.003-0.016h0.765c-0.001 0.005-0.003 0.010-0.003 0.016 0 0.062 0.050 0.112 0.112 0.112s0.112-0.050 0.112-0.112c0-0.006-0.002-0.011-0.003-0.016h0.765c-0.001 0.005-0.003 0.010-0.003 0.016 0 0.062 0.050 0.112 0.112 0.112s0.112-0.050 0.112-0.112c0-0.006-0.003-0.011-0.003-0.016h0.765c-0.001 0.005-0.003 0.010-0.003 0.016 0 0.062 0.050 0.112 0.112 0.112 0 0 0 0 0 0 0.062 0 0.112-0.050 0.112-0.112 0-0.006-0.002-0.011-0.003-0.016h0.765c-0.001 0.005-0.003 0.010-0.003 0.016 0 0.062 0.050 0.112 0.112 0.112s0.112-0.050 0.112-0.112c0-0.006-0.003-0.011-0.003-0.016h0.765c-0.001 0.005-0.003 0.010-0.003 0.016 0 0.062 0.050 0.112 0.112 0.112s0.112-0.050 0.112-0.112c0-0.006-0.003-0.011-0.003-0.016h0.504c-0.006 0.277-0.011 0.554-0.015 0.829-0.013-0.047-0.055-0.084-0.106-0.084-0.062 0-0.112 0.050-0.112 0.112s0.050 0.112 0.112 0.112c0.050 0 0.091-0.034 0.105-0.079-0.003 0.16-0.005 0.319-0.007 0.478-0.018-0.036-0.055-0.062-0.099-0.062-0.062 0-0.112 0.050-0.112 0.112s0.050 0.112 0.112 0.112c0.042 0 0.078-0.025 0.097-0.060-0.002 0.15-0.004 0.3-0.005 0.45-0.020-0.031-0.053-0.053-0.092-0.053-0.062 0-0.112 0.050-0.112 0.112s0.050 0.112 0.112 0.112c0.039 0 0.072-0.021 0.092-0.052-0.001 0.146-0.001 0.293-0.002 0.439-0.020-0.029-0.052-0.049-0.090-0.049-0.062 0-0.112 0.050-0.112 0.112s0.050 0.112 0.112 0.112c0.038 0 0.070-0.020 0.090-0.049-0 0.144-0.002 0.289-0.002 0.433-0.020-0.027-0.051-0.046-0.088-0.046-0.062 0-0.112 0.050-0.112 0.112s0.050 0.112 0.112 0.112c0.036 0 0.067-0.019 0.088-0.046 0 0.144 0.002 0.289 0.003 0.433-0.020-0.029-0.053-0.050-0.090-0.050-0.062 0-0.112 0.050-0.112 0.112s0.050 0.111 0.112 0.111c0.038 0 0.071-0.021 0.091-0.050 0.001 0.148 0.002 0.296 0.003 0.444-0.020-0.032-0.054-0.055-0.094-0.055-0.062 0-0.112 0.050-0.112 0.112s0.050 0.112 0.112 0.112c0.041 0 0.076-0.024 0.095-0.057 0.002 0.152 0.003 0.304 0.005 0.457-0.018-0.037-0.056-0.063-0.099-0.063-0.062 0-0.112 0.050-0.112 0.112s0.050 0.112 0.112 0.112c0.045 0 0.083-0.027 0.101-0.065 0.002 0.167 0.006 0.335 0.008 0.502-0.006-0.056-0.052-0.099-0.11-0.099-0.062 0-0.112 0.050-0.112 0.112s0.050 0.112 0.112 0.112c0.058 0 0.104-0.045 0.11-0.101 0.020 1.164 0.053 2.342 0.102 3.564 0 0.008 0.003 0.016 0.004 0.025h-0.606zM7.361 5.528c0-0.094 0.076-0.17 0.17-0.17h0.76c-0.093 0.041-0.187 0.081-0.278 0.122-0.231 0.102-0.448 0.197-0.652 0.275v-0.226zM2.256 5.896c0-0.087 0.070-0.157 0.157-0.157h0.842c0.087 0 0.157 0.070 0.157 0.157v0.036l-1.156 0v-0.036zM1.821 6.12l4.782-0.002c0.404 0 0.856-0.188 1.372-0.416-0.132 0.179-0.212 0.39-0.221 0.606-0.030 0.799-0.052 1.578-0.070 2.35l-5.474 0c-0.25 0.023-0.745 0.116-1.175 0.278v-2.030c0-0.433 0.352-0.785 0.785-0.785zM22.259 19.157h-20.439c-0.433 0-0.785-0.353-0.785-0.787v-0.389h6.768c0.115 0.448 0.515 0.821 0.977 0.873 1.090 0.103 2.186 0.155 3.259 0.155s2.17-0.052 3.263-0.155c0.46-0.051 0.86-0.424 0.975-0.873h6.768v0.389c-0 0.434-0.353 0.787-0.787 0.787zM12.059 9.8c-1.641 0-2.976 1.335-2.976 2.976s1.335 2.976 2.976 2.976 2.976-1.335 2.976-2.976c0-1.641-1.335-2.976-2.976-2.976zM12.059 15.564c-1.537 0-2.787-1.251-2.787-2.788s1.25-2.787 2.787-2.787 2.787 1.25 2.787 2.787-1.25 2.788-2.787 2.788zM13.67 12.288c-0.217-0.715-0.864-1.196-1.611-1.196-0.165 0-0.33 0.025-0.489 0.073-0.888 0.27-1.392 1.211-1.122 2.1 0.217 0.715 0.864 1.195 1.611 1.195 0.165 0 0.33-0.025 0.489-0.073 0.888-0.269 1.392-1.211 1.122-2.099zM12.058 14.271c-0.663 0-1.238-0.426-1.43-1.061-0.239-0.789 0.208-1.626 0.997-1.865 0.142-0.043 0.288-0.065 0.434-0.065 0.663 0 1.238 0.427 1.431 1.062 0.239 0.789-0.208 1.625-0.997 1.865-0.142 0.043-0.288 0.065-0.435 0.065zM11.104 11.878c-0.321 0.341-0.436 0.831-0.3 1.279 0.013 0.040 0.050 0.067 0.090 0.067 0.009 0 0.018-0.001 0.027-0.005 0.050-0.015 0.078-0.068 0.063-0.117-0.116-0.383-0.018-0.803 0.257-1.095 0.036-0.038 0.034-0.098-0.004-0.133s-0.097-0.034-0.133 0.004zM11.409 11.637c-0.020 0.011-0.039 0.023-0.058 0.035-0.044 0.028-0.057 0.086-0.029 0.13 0.018 0.028 0.048 0.043 0.079 0.043 0.017 0 0.035-0.005 0.051-0.015s0.032-0.020 0.048-0.029c0.045-0.026 0.061-0.083 0.036-0.128s-0.083-0.061-0.128-0.036zM17.164 7.502c0.264 0 0.479-0.215 0.479-0.479s-0.215-0.479-0.479-0.479c-0.265 0-0.479 0.215-0.479 0.479s0.215 0.479 0.479 0.479zM17.164 6.731c0.16 0 0.291 0.131 0.291 0.291s-0.131 0.291-0.291 0.291c-0.161 0-0.291-0.131-0.291-0.291s0.13-0.291 0.291-0.291zM17.051 7.767v0.445c0 0.1 0.082 0.182 0.183 0.182h2.301c0.1 0 0.182-0.082 0.182-0.182v-0.445c0-0.1-0.082-0.182-0.182-0.182h-2.301c-0.1 0-0.183 0.082-0.183 0.182zM17.234 7.773l0.851-0.002v0.439l-0.845 0.002-0.006-0.439zM19.529 8.206l-1.255 0.003v-0.439l1.255-0.003v0.439zM22.913 9.406c0 0.062-0.050 0.112-0.112 0.112s-0.112-0.050-0.112-0.112c0-0.062 0.050-0.112 0.112-0.112s0.112 0.050 0.112 0.112zM22.913 10.528c0 0.062-0.050 0.112-0.112 0.112s-0.112-0.050-0.112-0.112c0-0.062 0.050-0.112 0.112-0.112s0.112 0.050 0.112 0.112zM22.914 9.967c0 0.062-0.050 0.112-0.112 0.112s-0.112-0.050-0.112-0.112c0-0.062 0.050-0.112 0.112-0.112s0.112 0.050 0.112 0.112zM22.913 11.089c0 0.062-0.050 0.112-0.112 0.112s-0.112-0.050-0.112-0.112c0-0.062 0.050-0.112 0.112-0.112s0.112 0.050 0.112 0.112zM22.913 11.651c0 0.062-0.050 0.112-0.112 0.112s-0.112-0.050-0.112-0.112c0-0.062 0.050-0.112 0.112-0.112s0.112 0.050 0.112 0.112zM22.914 12.212c0 0.062-0.050 0.112-0.112 0.112s-0.112-0.050-0.112-0.112c0-0.062 0.050-0.112 0.112-0.112s0.112 0.050 0.112 0.112zM22.913 12.774c0 0.062-0.050 0.112-0.112 0.112s-0.112-0.050-0.112-0.112c0-0.062 0.050-0.112 0.112-0.112s0.112 0.050 0.112 0.112zM22.422 9.125c0 0.062-0.050 0.112-0.112 0.112s-0.112-0.050-0.112-0.112c0-0.062 0.050-0.112 0.112-0.112s0.112 0.050 0.112 0.112zM22.422 9.686c0 0.062-0.050 0.112-0.112 0.112s-0.112-0.050-0.112-0.112c0-0.062 0.050-0.112 0.112-0.112s0.112 0.050 0.112 0.112zM22.422 10.247c0 0.062-0.050 0.112-0.112 0.112s-0.112-0.050-0.112-0.112c0-0.062 0.050-0.112 0.112-0.112s0.112 0.050 0.112 0.112zM22.422 10.809c0 0.062-0.050 0.112-0.112 0.112s-0.112-0.050-0.112-0.112c0-0.062 0.050-0.112 0.112-0.112s0.112 0.050 0.112 0.112zM22.423 11.37c0 0.062-0.050 0.112-0.112 0.112s-0.112-0.050-0.112-0.112c0-0.062 0.050-0.112 0.112-0.112s0.112 0.050 0.112 0.112zM22.423 11.931c0 0.062-0.050 0.112-0.112 0.112s-0.112-0.050-0.112-0.112c0-0.062 0.050-0.112 0.112-0.112s0.112 0.050 0.112 0.112zM22.422 12.493c0 0.062-0.050 0.112-0.112 0.112s-0.112-0.050-0.112-0.112c0-0.062 0.050-0.112 0.112-0.112s0.112 0.050 0.112 0.112zM21.931 9.406c0 0.062-0.050 0.112-0.112 0.112s-0.112-0.050-0.112-0.112c0-0.062 0.050-0.112 0.112-0.112s0.112 0.050 0.112 0.112zM21.931 10.528c0 0.062-0.050 0.112-0.112 0.112s-0.112-0.050-0.112-0.112c0-0.062 0.050-0.112 0.112-0.112s0.112 0.050 0.112 0.112zM21.931 9.967c0 0.062-0.050 0.112-0.112 0.112s-0.112-0.050-0.112-0.112c0-0.062 0.050-0.112 0.112-0.112s0.112 0.050 0.112 0.112zM21.931 11.089c0 0.062-0.050 0.112-0.112 0.112s-0.112-0.050-0.112-0.112c0-0.062 0.050-0.112 0.112-0.112s0.112 0.050 0.112 0.112zM21.931 11.651c0 0.062-0.050 0.112-0.112 0.112s-0.112-0.050-0.112-0.112c0-0.062 0.050-0.112 0.112-0.112s0.112 0.050 0.112 0.112zM21.931 12.212c0 0.062-0.050 0.112-0.112 0.112s-0.112-0.050-0.112-0.112c0-0.062 0.050-0.112 0.112-0.112s0.112 0.050 0.112 0.112zM21.931 12.774c0 0.062-0.050 0.112-0.112 0.112s-0.112-0.050-0.112-0.112c0-0.062 0.050-0.112 0.112-0.112s0.112 0.050 0.112 0.112zM21.44 9.125c0 0.062-0.050 0.112-0.112 0.112s-0.112-0.050-0.112-0.112c0-0.062 0.050-0.112 0.112-0.112s0.112 0.050 0.112 0.112zM21.44 9.686c0 0.062-0.050 0.112-0.112 0.112s-0.112-0.050-0.112-0.112c0-0.062 0.050-0.112 0.112-0.112s0.112 0.050 0.112 0.112zM21.44 10.247c0 0.062-0.050 0.112-0.112 0.112s-0.112-0.050-0.112-0.112c0-0.062 0.050-0.112 0.112-0.112s0.112 0.050 0.112 0.112zM21.44 10.809c0 0.062-0.050 0.112-0.112 0.112s-0.112-0.050-0.112-0.112c0-0.062 0.050-0.112 0.112-0.112s0.112 0.050 0.112 0.112zM21.44 11.37c0 0.062-0.050 0.112-0.112 0.112s-0.112-0.050-0.112-0.112c0-0.062 0.050-0.112 0.112-0.112s0.112 0.050 0.112 0.112zM21.44 11.931c0 0.062-0.050 0.112-0.112 0.112s-0.112-0.050-0.112-0.112c0-0.062 0.050-0.112 0.112-0.112s0.112 0.050 0.112 0.112zM21.44 12.493c0 0.062-0.050 0.112-0.112 0.112s-0.112-0.050-0.112-0.112c0-0.062 0.050-0.112 0.112-0.112s0.112 0.050 0.112 0.112zM20.949 9.406c0 0.062-0.050 0.112-0.112 0.112s-0.112-0.050-0.112-0.112c0-0.062 0.050-0.112 0.112-0.112s0.112 0.050 0.112 0.112zM20.949 10.528c0 0.062-0.050 0.112-0.112 0.112s-0.112-0.050-0.112-0.112c0-0.062 0.050-0.112 0.112-0.112s0.112 0.050 0.112 0.112zM20.949 9.967c0 0.062-0.050 0.112-0.112 0.112s-0.112-0.050-0.112-0.112c0-0.062 0.050-0.112 0.112-0.112s0.112 0.050 0.112 0.112zM20.949 11.089c0 0.062-0.050 0.112-0.112 0.112s-0.112-0.050-0.112-0.112c0-0.062 0.050-0.112 0.112-0.112s0.112 0.050 0.112 0.112zM20.949 11.651c0 0.062-0.050 0.112-0.112 0.112s-0.112-0.050-0.112-0.112c0-0.062 0.050-0.112 0.112-0.112s0.112 0.050 0.112 0.112zM20.949 12.212c0 0.062-0.050 0.112-0.112 0.112s-0.112-0.050-0.112-0.112c0-0.062 0.050-0.112 0.112-0.112s0.112 0.050 0.112 0.112zM20.949 12.774c0 0.062-0.050 0.112-0.112 0.112s-0.112-0.050-0.112-0.112c0-0.062 0.050-0.112 0.112-0.112s0.112 0.050 0.112 0.112zM20.458 9.125c0 0.062-0.050 0.112-0.112 0.112s-0.112-0.050-0.112-0.112c0-0.062 0.050-0.112 0.112-0.112s0.112 0.050 0.112 0.112zM20.458 9.686c0 0.062-0.050 0.112-0.112 0.112s-0.112-0.050-0.112-0.112c0-0.062 0.050-0.112 0.112-0.112s0.112 0.050 0.112 0.112zM20.458 10.247c0 0.062-0.050 0.112-0.112 0.112s-0.112-0.050-0.112-0.112c0-0.062 0.050-0.112 0.112-0.112s0.112 0.050 0.112 0.112zM20.458 10.809c0 0.062-0.050 0.112-0.112 0.112s-0.112-0.050-0.112-0.112c0-0.062 0.050-0.112 0.112-0.112s0.112 0.050 0.112 0.112zM20.458 11.37c0 0.062-0.050 0.112-0.112 0.112s-0.112-0.050-0.112-0.112c0-0.062 0.050-0.112 0.112-0.112s0.112 0.050 0.112 0.112zM20.458 11.931c0 0.062-0.050 0.112-0.112 0.112s-0.112-0.050-0.112-0.112c0-0.062 0.050-0.112 0.112-0.112s0.112 0.050 0.112 0.112zM20.458 12.493c0 0.062-0.050 0.112-0.112 0.112s-0.112-0.050-0.112-0.112c0-0.062 0.050-0.112 0.112-0.112s0.112 0.050 0.112 0.112zM19.966 9.406c0 0.062-0.050 0.112-0.112 0.112s-0.112-0.050-0.112-0.112c0-0.062 0.050-0.112 0.112-0.112s0.112 0.050 0.112 0.112zM19.966 10.528c0 0.062-0.050 0.112-0.112 0.112s-0.112-0.050-0.112-0.112c0-0.062 0.050-0.112 0.112-0.112s0.112 0.050 0.112 0.112zM19.967 9.967c0 0.062-0.050 0.112-0.112 0.112s-0.112-0.050-0.112-0.112c0-0.062 0.050-0.112 0.112-0.112s0.112 0.050 0.112 0.112zM19.966 11.089c0 0.062-0.050 0.112-0.112 0.112s-0.112-0.050-0.112-0.112c0-0.062 0.050-0.112 0.112-0.112s0.112 0.050 0.112 0.112zM19.966 11.651c0 0.062-0.050 0.112-0.112 0.112s-0.112-0.050-0.112-0.112c0-0.062 0.050-0.112 0.112-0.112s0.112 0.050 0.112 0.112zM19.967 12.212c0 0.062-0.050 0.112-0.112 0.112s-0.112-0.050-0.112-0.112c0-0.062 0.050-0.112 0.112-0.112s0.112 0.050 0.112 0.112zM19.966 12.774c0 0.062-0.050 0.112-0.112 0.112s-0.112-0.050-0.112-0.112c0-0.062 0.050-0.112 0.112-0.112s0.112 0.050 0.112 0.112zM19.475 9.125c0 0.062-0.050 0.112-0.112 0.112s-0.112-0.050-0.112-0.112c0-0.062 0.050-0.112 0.112-0.112s0.112 0.050 0.112 0.112zM19.475 9.686c0 0.062-0.050 0.112-0.112 0.112s-0.112-0.050-0.112-0.112c0-0.062 0.050-0.112 0.112-0.112s0.112 0.050 0.112 0.112zM19.475 10.247c0 0.062-0.050 0.112-0.112 0.112s-0.112-0.050-0.112-0.112c0-0.062 0.050-0.112 0.112-0.112s0.112 0.050 0.112 0.112zM19.475 10.809c0 0.062-0.050 0.112-0.112 0.112s-0.112-0.050-0.112-0.112c0-0.062 0.050-0.112 0.112-0.112s0.112 0.050 0.112 0.112zM19.475 11.37c0 0.062-0.050 0.112-0.112 0.112s-0.112-0.050-0.112-0.112c0-0.062 0.050-0.112 0.112-0.112s0.112 0.050 0.112 0.112zM19.475 11.931c0 0.062-0.050 0.112-0.112 0.112s-0.112-0.050-0.112-0.112c0-0.062 0.050-0.112 0.112-0.112s0.112 0.050 0.112 0.112zM19.475 12.493c0 0.062-0.050 0.112-0.112 0.112s-0.112-0.050-0.112-0.112c0-0.062 0.050-0.112 0.112-0.112s0.112 0.050 0.112 0.112zM18.984 9.406c0 0.062-0.050 0.112-0.112 0.112s-0.112-0.050-0.112-0.112c0-0.062 0.050-0.112 0.112-0.112s0.112 0.050 0.112 0.112zM18.984 10.528c0 0.062-0.050 0.112-0.112 0.112s-0.112-0.050-0.112-0.112c0-0.062 0.050-0.112 0.112-0.112s0.112 0.050 0.112 0.112zM18.984 9.967c0 0.062-0.050 0.112-0.112 0.112s-0.112-0.050-0.112-0.112c0-0.062 0.050-0.112 0.112-0.112s0.112 0.050 0.112 0.112zM18.984 11.089c0 0.062-0.050 0.112-0.112 0.112s-0.112-0.050-0.112-0.112c0-0.062 0.050-0.112 0.112-0.112s0.112 0.050 0.112 0.112zM18.984 11.651c0 0.062-0.050 0.112-0.112 0.112s-0.112-0.050-0.112-0.112c0-0.062 0.050-0.112 0.112-0.112s0.112 0.050 0.112 0.112zM18.984 12.212c0 0.062-0.050 0.112-0.112 0.112s-0.112-0.050-0.112-0.112c0-0.062 0.050-0.112 0.112-0.112s0.112 0.050 0.112 0.112zM18.984 12.774c0 0.062-0.050 0.112-0.112 0.112s-0.112-0.050-0.112-0.112c0-0.062 0.050-0.112 0.112-0.112s0.112 0.050 0.112 0.112zM18.493 9.125c0 0.062-0.050 0.112-0.112 0.112s-0.112-0.050-0.112-0.112c0-0.062 0.050-0.112 0.112-0.112s0.112 0.050 0.112 0.112zM18.493 9.686c0 0.062-0.050 0.112-0.112 0.112s-0.112-0.050-0.112-0.112c0-0.062 0.050-0.112 0.112-0.112s0.112 0.050 0.112 0.112zM18.493 10.247c0 0.062-0.050 0.112-0.112 0.112s-0.112-0.050-0.112-0.112c0-0.062 0.050-0.112 0.112-0.112s0.112 0.050 0.112 0.112zM18.493 10.809c0 0.062-0.050 0.112-0.112 0.112s-0.112-0.050-0.112-0.112c0-0.062 0.050-0.112 0.112-0.112s0.112 0.050 0.112 0.112zM18.493 11.37c0 0.062-0.050 0.112-0.112 0.112s-0.112-0.050-0.112-0.112c0-0.062 0.050-0.112 0.112-0.112s0.112 0.050 0.112 0.112zM18.002 9.406c0 0.062-0.050 0.112-0.112 0.112s-0.112-0.050-0.112-0.112c0-0.062 0.050-0.112 0.112-0.112s0.112 0.050 0.112 0.112zM18.002 10.528c0 0.062-0.050 0.112-0.112 0.112s-0.112-0.050-0.112-0.112c0-0.062 0.050-0.112 0.112-0.112s0.112 0.050 0.112 0.112zM18.002 9.967c0 0.062-0.050 0.112-0.112 0.112s-0.112-0.050-0.112-0.112c0-0.062 0.050-0.112 0.112-0.112s0.112 0.050 0.112 0.112zM18.002 11.089c0 0.062-0.050 0.112-0.112 0.112s-0.112-0.050-0.112-0.112c0-0.062 0.050-0.112 0.112-0.112s0.112 0.050 0.112 0.112zM17.511 9.125c0 0.062-0.050 0.112-0.112 0.112s-0.112-0.050-0.112-0.112c0-0.062 0.050-0.112 0.112-0.112s0.112 0.050 0.112 0.112zM17.511 9.686c0 0.062-0.050 0.112-0.112 0.112s-0.112-0.050-0.112-0.112c0-0.062 0.050-0.112 0.112-0.112s0.112 0.050 0.112 0.112zM17.511 10.247c0 0.062-0.050 0.112-0.112 0.112s-0.112-0.050-0.112-0.112c0-0.062 0.050-0.112 0.112-0.112s0.112 0.050 0.112 0.112zM17.511 10.809c0 0.062-0.050 0.112-0.112 0.112s-0.112-0.050-0.112-0.112c0-0.062 0.050-0.112 0.112-0.112s0.112 0.050 0.112 0.112zM17.511 11.37c0 0.062-0.050 0.112-0.112 0.112s-0.112-0.050-0.112-0.112c0-0.062 0.050-0.112 0.112-0.112s0.112 0.050 0.112 0.112zM17.019 9.406c0 0.062-0.050 0.112-0.112 0.112s-0.112-0.050-0.112-0.112c0-0.062 0.050-0.112 0.112-0.112s0.112 0.050 0.112 0.112zM17.019 10.528c0 0.062-0.050 0.112-0.112 0.112s-0.112-0.050-0.112-0.112c0-0.062 0.050-0.112 0.112-0.112s0.112 0.050 0.112 0.112zM17.020 9.967c0 0.062-0.050 0.112-0.112 0.112s-0.112-0.050-0.112-0.112c0-0.062 0.050-0.112 0.112-0.112s0.112 0.050 0.112 0.112zM17.019 11.089c0 0.062-0.050 0.112-0.112 0.112s-0.112-0.050-0.112-0.112c0-0.062 0.050-0.112 0.112-0.112s0.112 0.050 0.112 0.112zM22.914 13.335c0 0.062-0.050 0.112-0.112 0.112s-0.112-0.050-0.112-0.112c0-0.062 0.050-0.112 0.112-0.112s0.112 0.050 0.112 0.112zM22.913 14.457c0 0.062-0.050 0.112-0.112 0.112s-0.112-0.050-0.112-0.112c0-0.062 0.050-0.112 0.112-0.112s0.112 0.050 0.112 0.112zM22.913 13.896c0 0.062-0.050 0.112-0.112 0.112s-0.112-0.050-0.112-0.112c0-0.062 0.050-0.112 0.112-0.112s0.112 0.050 0.112 0.112zM22.913 15.019c0 0.062-0.050 0.112-0.112 0.112s-0.112-0.050-0.112-0.112c0-0.062 0.050-0.112 0.112-0.112s0.112 0.050 0.112 0.112zM22.913 15.58c0 0.062-0.050 0.112-0.112 0.112s-0.112-0.050-0.112-0.112c0-0.062 0.050-0.112 0.112-0.112s0.112 0.050 0.112 0.112zM22.913 16.141c0 0.062-0.050 0.112-0.112 0.112s-0.112-0.050-0.112-0.112c0-0.062 0.050-0.112 0.112-0.112s0.112 0.050 0.112 0.112zM22.913 16.702c0 0.062-0.050 0.112-0.112 0.112s-0.112-0.050-0.112-0.112c0-0.062 0.050-0.112 0.112-0.112s0.112 0.050 0.112 0.112zM22.422 13.054c0 0.062-0.050 0.112-0.112 0.112s-0.112-0.050-0.112-0.112c0-0.062 0.050-0.112 0.112-0.112s0.112 0.050 0.112 0.112zM22.423 13.615c0 0.062-0.050 0.112-0.112 0.112s-0.112-0.050-0.112-0.112c0-0.062 0.050-0.112 0.112-0.112s0.112 0.050 0.112 0.112zM22.422 14.177c0 0.062-0.050 0.112-0.112 0.112s-0.112-0.050-0.112-0.112c0-0.062 0.050-0.112 0.112-0.112s0.112 0.050 0.112 0.112zM22.422 14.738c0 0.062-0.050 0.112-0.112 0.112s-0.112-0.050-0.112-0.112c0-0.062 0.050-0.112 0.112-0.112s0.112 0.050 0.112 0.112zM22.422 15.299c0 0.062-0.050 0.112-0.112 0.112s-0.112-0.050-0.112-0.112c0-0.062 0.050-0.112 0.112-0.112s0.112 0.050 0.112 0.112zM22.422 15.86c0 0.062-0.050 0.112-0.112 0.112s-0.112-0.050-0.112-0.112c0-0.062 0.050-0.112 0.112-0.112s0.112 0.050 0.112 0.112zM22.422 16.422c0 0.062-0.050 0.112-0.112 0.112s-0.112-0.050-0.112-0.112c0-0.062 0.050-0.112 0.112-0.112s0.112 0.050 0.112 0.112zM21.931 13.335c0 0.062-0.050 0.112-0.112 0.112s-0.112-0.050-0.112-0.112c0-0.062 0.050-0.112 0.112-0.112s0.112 0.050 0.112 0.112zM21.931 14.457c0 0.062-0.050 0.112-0.112 0.112s-0.112-0.050-0.112-0.112c0-0.062 0.050-0.112 0.112-0.112s0.112 0.050 0.112 0.112zM21.931 13.896c0 0.062-0.050 0.112-0.112 0.112s-0.112-0.050-0.112-0.112c0-0.062 0.050-0.112 0.112-0.112s0.112 0.050 0.112 0.112zM21.931 15.019c0 0.062-0.050 0.112-0.112 0.112s-0.112-0.050-0.112-0.112c0-0.062 0.050-0.112 0.112-0.112s0.112 0.050 0.112 0.112zM21.931 15.58c0 0.062-0.050 0.112-0.112 0.112s-0.112-0.050-0.112-0.112c0-0.062 0.050-0.112 0.112-0.112s0.112 0.050 0.112 0.112zM21.931 16.141c0 0.062-0.050 0.112-0.112 0.112s-0.112-0.050-0.112-0.112c0-0.062 0.050-0.112 0.112-0.112s0.112 0.050 0.112 0.112zM21.931 16.702c0 0.062-0.050 0.112-0.112 0.112s-0.112-0.050-0.112-0.112c0-0.062 0.050-0.112 0.112-0.112s0.112 0.050 0.112 0.112zM21.44 13.054c0 0.062-0.050 0.112-0.112 0.112s-0.112-0.050-0.112-0.112c0-0.062 0.050-0.112 0.112-0.112s0.112 0.050 0.112 0.112zM21.44 13.615c0 0.062-0.050 0.112-0.112 0.112s-0.112-0.050-0.112-0.112c0-0.062 0.050-0.112 0.112-0.112s0.112 0.050 0.112 0.112zM21.44 14.177c0 0.062-0.050 0.112-0.112 0.112s-0.112-0.050-0.112-0.112c0-0.062 0.050-0.112 0.112-0.112s0.112 0.050 0.112 0.112zM21.44 14.738c0 0.062-0.050 0.112-0.112 0.112s-0.112-0.050-0.112-0.112c0-0.062 0.050-0.112 0.112-0.112s0.112 0.050 0.112 0.112zM21.44 15.299c0 0.062-0.050 0.112-0.112 0.112s-0.112-0.050-0.112-0.112c0-0.062 0.050-0.112 0.112-0.112s0.112 0.050 0.112 0.112zM21.44 15.86c0 0.062-0.050 0.112-0.112 0.112s-0.112-0.050-0.112-0.112c0-0.062 0.050-0.112 0.112-0.112s0.112 0.050 0.112 0.112zM21.44 16.422c0 0.062-0.050 0.112-0.112 0.112s-0.112-0.050-0.112-0.112c0-0.062 0.050-0.112 0.112-0.112s0.112 0.050 0.112 0.112zM20.949 13.335c0 0.062-0.050 0.112-0.112 0.112s-0.112-0.050-0.112-0.112c0-0.062 0.050-0.112 0.112-0.112s0.112 0.050 0.112 0.112zM20.949 14.457c0 0.062-0.050 0.112-0.112 0.112s-0.112-0.050-0.112-0.112c0-0.062 0.050-0.112 0.112-0.112s0.112 0.050 0.112 0.112zM20.949 13.896c0 0.062-0.050 0.112-0.112 0.112s-0.112-0.050-0.112-0.112c0-0.062 0.050-0.112 0.112-0.112s0.112 0.050 0.112 0.112zM20.949 15.019c0 0.062-0.050 0.112-0.112 0.112s-0.112-0.050-0.112-0.112c0-0.062 0.050-0.112 0.112-0.112s0.112 0.050 0.112 0.112zM20.949 15.58c0 0.062-0.050 0.112-0.112 0.112s-0.112-0.050-0.112-0.112c0-0.062 0.050-0.112 0.112-0.112s0.112 0.050 0.112 0.112zM20.949 16.141c0 0.062-0.050 0.112-0.112 0.112s-0.112-0.050-0.112-0.112c0-0.062 0.050-0.112 0.112-0.112s0.112 0.050 0.112 0.112zM20.949 16.702c0 0.062-0.050 0.112-0.112 0.112s-0.112-0.050-0.112-0.112c0-0.062 0.050-0.112 0.112-0.112s0.112 0.050 0.112 0.112zM20.458 13.054c0 0.062-0.050 0.112-0.112 0.112s-0.112-0.050-0.112-0.112c0-0.062 0.050-0.112 0.112-0.112s0.112 0.050 0.112 0.112zM20.458 13.615c0 0.062-0.050 0.112-0.112 0.112s-0.112-0.050-0.112-0.112c0-0.062 0.050-0.112 0.112-0.112s0.112 0.050 0.112 0.112zM20.458 14.177c0 0.062-0.050 0.112-0.112 0.112s-0.112-0.050-0.112-0.112c0-0.062 0.050-0.112 0.112-0.112s0.112 0.050 0.112 0.112zM20.458 14.738c0 0.062-0.050 0.112-0.112 0.112s-0.112-0.050-0.112-0.112c0-0.062 0.050-0.112 0.112-0.112s0.112 0.050 0.112 0.112zM20.458 15.299c0 0.062-0.050 0.112-0.112 0.112s-0.112-0.050-0.112-0.112c0-0.062 0.050-0.112 0.112-0.112s0.112 0.050 0.112 0.112zM20.458 15.86c0 0.062-0.050 0.112-0.112 0.112s-0.112-0.050-0.112-0.112c0-0.062 0.050-0.112 0.112-0.112s0.112 0.050 0.112 0.112zM20.458 16.422c0 0.062-0.050 0.112-0.112 0.112s-0.112-0.050-0.112-0.112c0-0.062 0.050-0.112 0.112-0.112s0.112 0.050 0.112 0.112zM19.967 13.335c0 0.062-0.050 0.112-0.112 0.112s-0.112-0.050-0.112-0.112c0-0.062 0.050-0.112 0.112-0.112s0.112 0.050 0.112 0.112zM19.966 14.457c0 0.062-0.050 0.112-0.112 0.112s-0.112-0.050-0.112-0.112c0-0.062 0.050-0.112 0.112-0.112s0.112 0.050 0.112 0.112zM19.966 13.896c0 0.062-0.050 0.112-0.112 0.112s-0.112-0.050-0.112-0.112c0-0.062 0.050-0.112 0.112-0.112s0.112 0.050 0.112 0.112zM19.966 15.019c0 0.062-0.050 0.112-0.112 0.112s-0.112-0.050-0.112-0.112c0-0.062 0.050-0.112 0.112-0.112s0.112 0.050 0.112 0.112zM19.966 15.58c0 0.062-0.050 0.112-0.112 0.112s-0.112-0.050-0.112-0.112c0-0.062 0.050-0.112 0.112-0.112s0.112 0.050 0.112 0.112zM19.966 16.141c0 0.062-0.050 0.112-0.112 0.112s-0.112-0.050-0.112-0.112c0-0.062 0.050-0.112 0.112-0.112s0.112 0.050 0.112 0.112zM19.966 16.702c0 0.062-0.050 0.112-0.112 0.112s-0.112-0.050-0.112-0.112c0-0.062 0.050-0.112 0.112-0.112s0.112 0.050 0.112 0.112zM19.475 13.054c0 0.062-0.050 0.112-0.112 0.112s-0.112-0.050-0.112-0.112c0-0.062 0.050-0.112 0.112-0.112s0.112 0.050 0.112 0.112zM19.475 13.615c0 0.062-0.050 0.112-0.112 0.112s-0.112-0.050-0.112-0.112c0-0.062 0.050-0.112 0.112-0.112s0.112 0.050 0.112 0.112zM19.475 14.177c0 0.062-0.050 0.112-0.112 0.112s-0.112-0.050-0.112-0.112c0-0.062 0.050-0.112 0.112-0.112s0.112 0.050 0.112 0.112zM19.475 14.738c0 0.062-0.050 0.112-0.112 0.112s-0.112-0.050-0.112-0.112c0-0.062 0.050-0.112 0.112-0.112s0.112 0.050 0.112 0.112zM19.475 15.299c0 0.062-0.050 0.112-0.112 0.112s-0.112-0.050-0.112-0.112c0-0.062 0.050-0.112 0.112-0.112s0.112 0.050 0.112 0.112zM19.475 15.86c0 0.062-0.050 0.112-0.112 0.112s-0.112-0.050-0.112-0.112c0-0.062 0.050-0.112 0.112-0.112s0.112 0.050 0.112 0.112zM19.475 16.422c0 0.062-0.050 0.112-0.112 0.112s-0.112-0.050-0.112-0.112c0-0.062 0.050-0.112 0.112-0.112s0.112 0.050 0.112 0.112zM22.913 17.264c0 0.062-0.050 0.112-0.112 0.112s-0.112-0.050-0.112-0.112c0-0.062 0.050-0.112 0.112-0.112s0.112 0.050 0.112 0.112zM22.422 16.983c0 0.062-0.050 0.112-0.112 0.112s-0.112-0.050-0.112-0.112c0-0.062 0.050-0.112 0.112-0.112s0.112 0.050 0.112 0.112zM22.422 17.544c0 0.062-0.050 0.112-0.112 0.112s-0.112-0.050-0.112-0.112c0-0.062 0.050-0.112 0.112-0.112s0.112 0.050 0.112 0.112zM21.931 17.264c0 0.062-0.050 0.112-0.112 0.112s-0.112-0.050-0.112-0.112c0-0.062 0.050-0.112 0.112-0.112s0.112 0.050 0.112 0.112zM21.44 16.983c0 0.062-0.050 0.112-0.112 0.112s-0.112-0.050-0.112-0.112c0-0.062 0.050-0.112 0.112-0.112s0.112 0.050 0.112 0.112zM21.44 17.544c0 0.062-0.050 0.112-0.112 0.112s-0.112-0.050-0.112-0.112c0-0.062 0.050-0.112 0.112-0.112s0.112 0.050 0.112 0.112zM20.949 17.264c0 0.062-0.050 0.112-0.112 0.112s-0.112-0.050-0.112-0.112c0-0.062 0.050-0.112 0.112-0.112s0.112 0.050 0.112 0.112zM20.458 16.983c0 0.062-0.050 0.112-0.112 0.112s-0.112-0.050-0.112-0.112c0-0.062 0.050-0.112 0.112-0.112s0.112 0.050 0.112 0.112zM20.458 17.544c0 0.062-0.050 0.112-0.112 0.112s-0.112-0.050-0.112-0.112c0-0.062 0.050-0.112 0.112-0.112s0.112 0.050 0.112 0.112zM19.966 17.264c0 0.062-0.050 0.112-0.112 0.112s-0.112-0.050-0.112-0.112c0-0.062 0.050-0.112 0.112-0.112s0.112 0.050 0.112 0.112zM19.475 16.983c0 0.062-0.050 0.112-0.112 0.112s-0.112-0.050-0.112-0.112c0-0.062 0.050-0.112 0.112-0.112s0.112 0.050 0.112 0.112zM19.475 17.544c0 0.062-0.050 0.112-0.112 0.112s-0.112-0.050-0.112-0.112c0-0.062 0.050-0.112 0.112-0.112s0.112 0.050 0.112 0.112zM18.984 13.335c0 0.062-0.050 0.112-0.112 0.112s-0.112-0.050-0.112-0.112c0-0.062 0.050-0.112 0.112-0.112s0.112 0.050 0.112 0.112zM18.984 14.457c0 0.062-0.050 0.112-0.112 0.112s-0.112-0.050-0.112-0.112c0-0.062 0.050-0.112 0.112-0.112s0.112 0.050 0.112 0.112zM18.984 13.896c0 0.062-0.050 0.112-0.112 0.112s-0.112-0.050-0.112-0.112c0-0.062 0.050-0.112 0.112-0.112s0.112 0.050 0.112 0.112zM18.984 15.019c0 0.062-0.050 0.112-0.112 0.112s-0.112-0.050-0.112-0.112c0-0.062 0.050-0.112 0.112-0.112s0.112 0.050 0.112 0.112zM18.984 15.58c0 0.062-0.050 0.112-0.112 0.112s-0.112-0.050-0.112-0.112c0-0.062 0.050-0.112 0.112-0.112s0.112 0.050 0.112 0.112zM18.984 16.141c0 0.062-0.050 0.112-0.112 0.112s-0.112-0.050-0.112-0.112c0-0.062 0.050-0.112 0.112-0.112s0.112 0.050 0.112 0.112zM18.493 16.422c0 0.062-0.050 0.112-0.112 0.112s-0.112-0.050-0.112-0.112c0-0.062 0.050-0.112 0.112-0.112s0.112 0.050 0.112 0.112zM18.984 16.702c0 0.062-0.050 0.112-0.112 0.112s-0.112-0.050-0.112-0.112c0-0.062 0.050-0.112 0.112-0.112s0.112 0.050 0.112 0.112zM18.493 13.054c0 0.062-0.050 0.112-0.112 0.112s-0.112-0.050-0.112-0.112c0-0.062 0.050-0.112 0.112-0.112s0.112 0.050 0.112 0.112zM18.493 13.615c0 0.062-0.050 0.112-0.112 0.112s-0.112-0.050-0.112-0.112c0-0.062 0.050-0.112 0.112-0.112s0.112 0.050 0.112 0.112zM18.493 14.177c0 0.062-0.050 0.112-0.112 0.112s-0.112-0.050-0.112-0.112c0-0.062 0.050-0.112 0.112-0.112s0.112 0.050 0.112 0.112zM18.493 14.738c0 0.062-0.050 0.112-0.112 0.112s-0.112-0.050-0.112-0.112c0-0.062 0.050-0.112 0.112-0.112s0.112 0.050 0.112 0.112zM18.493 15.299c0 0.062-0.050 0.112-0.112 0.112s-0.112-0.050-0.112-0.112c0-0.062 0.050-0.112 0.112-0.112s0.112 0.050 0.112 0.112zM18.493 15.86c0 0.062-0.050 0.112-0.112 0.112s-0.112-0.050-0.112-0.112c0-0.062 0.050-0.112 0.112-0.112s0.112 0.050 0.112 0.112zM18.002 13.335c0 0.062-0.050 0.112-0.112 0.112s-0.112-0.050-0.112-0.112c0-0.062 0.050-0.112 0.112-0.112s0.112 0.050 0.112 0.112zM18.002 14.457c0 0.062-0.050 0.112-0.112 0.112s-0.112-0.050-0.112-0.112c0-0.062 0.050-0.112 0.112-0.112s0.112 0.050 0.112 0.112zM18.002 13.896c0 0.062-0.050 0.112-0.112 0.112s-0.112-0.050-0.112-0.112c0-0.062 0.050-0.112 0.112-0.112s0.112 0.050 0.112 0.112zM18.002 15.019c0 0.062-0.050 0.112-0.112 0.112s-0.112-0.050-0.112-0.112c0-0.062 0.050-0.112 0.112-0.112s0.112 0.050 0.112 0.112zM18.002 15.58c0 0.062-0.050 0.112-0.112 0.112s-0.112-0.050-0.112-0.112c0-0.062 0.050-0.112 0.112-0.112s0.112 0.050 0.112 0.112zM18.002 16.141c0 0.062-0.050 0.112-0.112 0.112s-0.112-0.050-0.112-0.112c0-0.062 0.050-0.112 0.112-0.112s0.112 0.050 0.112 0.112zM18.002 16.702c0 0.062-0.050 0.112-0.112 0.112s-0.112-0.050-0.112-0.112c0-0.062 0.050-0.112 0.112-0.112s0.112 0.050 0.112 0.112zM17.511 13.054c0 0.062-0.050 0.112-0.112 0.112s-0.112-0.050-0.112-0.112c0-0.062 0.050-0.112 0.112-0.112s0.112 0.050 0.112 0.112zM17.511 13.615c0 0.062-0.050 0.112-0.112 0.112s-0.112-0.050-0.112-0.112c0-0.062 0.050-0.112 0.112-0.112s0.112 0.050 0.112 0.112zM17.511 14.177c0 0.062-0.050 0.112-0.112 0.112s-0.112-0.050-0.112-0.112c0-0.062 0.050-0.112 0.112-0.112s0.112 0.050 0.112 0.112zM17.511 14.738c0 0.062-0.050 0.112-0.112 0.112s-0.112-0.050-0.112-0.112c0-0.062 0.050-0.112 0.112-0.112s0.112 0.050 0.112 0.112zM17.511 15.299c0 0.062-0.050 0.112-0.112 0.112s-0.112-0.050-0.112-0.112c0-0.062 0.050-0.112 0.112-0.112s0.112 0.050 0.112 0.112zM17.511 15.86c0 0.062-0.050 0.112-0.112 0.112s-0.112-0.050-0.112-0.112c0-0.062 0.050-0.112 0.112-0.112s0.112 0.050 0.112 0.112zM17.511 16.422c0 0.062-0.050 0.112-0.112 0.112s-0.112-0.050-0.112-0.112c0-0.062 0.050-0.112 0.112-0.112s0.112 0.050 0.112 0.112zM17.020 13.335c0 0.062-0.050 0.112-0.112 0.112s-0.112-0.050-0.112-0.112c0-0.062 0.050-0.112 0.112-0.112s0.112 0.050 0.112 0.112zM17.019 14.457c0 0.062-0.050 0.112-0.112 0.112s-0.112-0.050-0.112-0.112c0-0.062 0.050-0.112 0.112-0.112s0.112 0.050 0.112 0.112zM17.019 13.896c0 0.062-0.050 0.112-0.112 0.112s-0.112-0.050-0.112-0.112c0-0.062 0.050-0.112 0.112-0.112s0.112 0.050 0.112 0.112zM17.019 15.019c0 0.062-0.050 0.112-0.112 0.112s-0.112-0.050-0.112-0.112c0-0.062 0.050-0.112 0.112-0.112s0.112 0.050 0.112 0.112zM17.019 15.58c0 0.062-0.050 0.112-0.112 0.112s-0.112-0.050-0.112-0.112c0-0.062 0.050-0.112 0.112-0.112s0.112 0.050 0.112 0.112zM17.019 16.141c0 0.062-0.050 0.112-0.112 0.112s-0.112-0.050-0.112-0.112c0-0.062 0.050-0.112 0.112-0.112s0.112 0.050 0.112 0.112zM17.019 16.702c0 0.062-0.050 0.112-0.112 0.112s-0.112-0.050-0.112-0.112c0-0.062 0.050-0.112 0.112-0.112s0.112 0.050 0.112 0.112zM18.984 17.264c0 0.062-0.050 0.112-0.112 0.112s-0.112-0.050-0.112-0.112c0-0.062 0.050-0.112 0.112-0.112s0.112 0.050 0.112 0.112zM18.493 16.983c0 0.062-0.050 0.112-0.112 0.112s-0.112-0.050-0.112-0.112c0-0.062 0.050-0.112 0.112-0.112s0.112 0.050 0.112 0.112zM18.493 17.544c0 0.062-0.050 0.112-0.112 0.112s-0.112-0.050-0.112-0.112c0-0.062 0.050-0.112 0.112-0.112s0.112 0.050 0.112 0.112zM18.002 17.264c0 0.062-0.050 0.112-0.112 0.112s-0.112-0.050-0.112-0.112c0-0.062 0.050-0.112 0.112-0.112s0.112 0.050 0.112 0.112zM17.511 16.983c0 0.062-0.050 0.112-0.112 0.112s-0.112-0.050-0.112-0.112c0-0.062 0.050-0.112 0.112-0.112s0.112 0.050 0.112 0.112zM17.511 17.544c0 0.062-0.050 0.112-0.112 0.112s-0.112-0.050-0.112-0.112c0-0.062 0.050-0.112 0.112-0.112s0.112 0.050 0.112 0.112zM17.019 17.264c0 0.062-0.050 0.112-0.112 0.112s-0.112-0.050-0.112-0.112c0-0.062 0.050-0.112 0.112-0.112s0.112 0.050 0.112 0.112zM7.688 9.125c0 0.062-0.050 0.112-0.112 0.112s-0.112-0.050-0.112-0.112c0-0.062 0.050-0.112 0.112-0.112s0.112 0.050 0.112 0.112zM7.197 9.406c0 0.062-0.050 0.112-0.112 0.112s-0.112-0.050-0.112-0.112c0-0.062 0.050-0.112 0.112-0.112s0.112 0.050 0.112 0.112zM7.197 10.528c0 0.062-0.050 0.112-0.112 0.112s-0.112-0.050-0.112-0.112c0-0.062 0.050-0.112 0.112-0.112s0.112 0.050 0.112 0.112zM7.197 9.967c0 0.062-0.050 0.112-0.112 0.112s-0.112-0.050-0.112-0.112c0-0.062 0.050-0.112 0.112-0.112s0.112 0.050 0.112 0.112zM7.197 11.089c0 0.062-0.050 0.112-0.112 0.112s-0.112-0.050-0.112-0.112c0-0.062 0.050-0.112 0.112-0.112s0.112 0.050 0.112 0.112zM7.197 11.651c0 0.062-0.050 0.112-0.112 0.112s-0.112-0.050-0.112-0.112c0-0.062 0.050-0.112 0.112-0.112s0.112 0.050 0.112 0.112zM7.197 12.212c0 0.062-0.050 0.112-0.112 0.112s-0.112-0.050-0.112-0.112c0-0.062 0.050-0.112 0.112-0.112s0.112 0.050 0.112 0.112zM7.197 12.774c0 0.062-0.050 0.112-0.112 0.112s-0.112-0.050-0.112-0.112c0-0.062 0.050-0.112 0.112-0.112s0.112 0.050 0.112 0.112zM6.706 9.125c0 0.062-0.050 0.112-0.112 0.112s-0.112-0.050-0.112-0.112c0-0.062 0.050-0.112 0.112-0.112s0.112 0.050 0.112 0.112zM6.706 9.686c0 0.062-0.050 0.112-0.112 0.112s-0.112-0.050-0.112-0.112c0-0.062 0.050-0.112 0.112-0.112s0.112 0.050 0.112 0.112zM6.706 10.247c0 0.062-0.050 0.112-0.112 0.112s-0.112-0.050-0.112-0.112c0-0.062 0.050-0.112 0.112-0.112s0.112 0.050 0.112 0.112zM6.706 10.809c0 0.062-0.050 0.112-0.112 0.112s-0.112-0.050-0.112-0.112c0-0.062 0.050-0.112 0.112-0.112s0.112 0.050 0.112 0.112zM6.706 11.37c0 0.062-0.050 0.112-0.112 0.112s-0.112-0.050-0.112-0.112c0-0.062 0.050-0.112 0.112-0.112s0.112 0.050 0.112 0.112zM6.706 11.931c0 0.062-0.050 0.112-0.112 0.112s-0.112-0.050-0.112-0.112c0-0.062 0.050-0.112 0.112-0.112s0.112 0.050 0.112 0.112zM6.706 12.493c0 0.062-0.050 0.112-0.112 0.112s-0.112-0.050-0.112-0.112c0-0.062 0.050-0.112 0.112-0.112s0.112 0.050 0.112 0.112zM6.215 9.406c0 0.062-0.050 0.112-0.112 0.112s-0.112-0.050-0.112-0.112c0-0.062 0.050-0.112 0.112-0.112s0.112 0.050 0.112 0.112zM6.215 10.528c0 0.062-0.050 0.112-0.112 0.112s-0.112-0.050-0.112-0.112c0-0.062 0.050-0.112 0.112-0.112s0.112 0.050 0.112 0.112zM6.215 9.967c0 0.062-0.050 0.112-0.112 0.112s-0.112-0.050-0.112-0.112c0-0.062 0.050-0.112 0.112-0.112s0.112 0.050 0.112 0.112zM6.215 11.089c0 0.062-0.050 0.112-0.112 0.112s-0.112-0.050-0.112-0.112c0-0.062 0.050-0.112 0.112-0.112s0.112 0.050 0.112 0.112zM6.215 11.651c0 0.062-0.050 0.112-0.112 0.112s-0.112-0.050-0.112-0.112c0-0.062 0.050-0.112 0.112-0.112s0.112 0.050 0.112 0.112zM6.215 12.212c0 0.062-0.050 0.112-0.112 0.112s-0.112-0.050-0.112-0.112c0-0.062 0.050-0.112 0.112-0.112s0.112 0.050 0.112 0.112zM6.215 12.774c0 0.062-0.050 0.112-0.112 0.112s-0.112-0.050-0.112-0.112c0-0.062 0.050-0.112 0.112-0.112s0.112 0.050 0.112 0.112zM5.724 9.125c0 0.062-0.050 0.112-0.112 0.112s-0.112-0.050-0.112-0.112c0-0.062 0.050-0.112 0.112-0.112s0.112 0.050 0.112 0.112zM5.724 9.686c0 0.062-0.050 0.112-0.112 0.112s-0.112-0.050-0.112-0.112c0-0.062 0.050-0.112 0.112-0.112s0.112 0.050 0.112 0.112zM5.724 10.247c0 0.062-0.050 0.112-0.112 0.112s-0.112-0.050-0.112-0.112c0-0.062 0.050-0.112 0.112-0.112s0.112 0.050 0.112 0.112zM5.724 10.809c0 0.062-0.050 0.112-0.112 0.112s-0.112-0.050-0.112-0.112c0-0.062 0.050-0.112 0.112-0.112s0.112 0.050 0.112 0.112zM5.724 11.37c0 0.062-0.050 0.112-0.112 0.112s-0.112-0.050-0.112-0.112c0-0.062 0.050-0.112 0.112-0.112s0.112 0.050 0.112 0.112zM5.724 11.931c0 0.062-0.050 0.112-0.112 0.112s-0.112-0.050-0.112-0.112c0-0.062 0.050-0.112 0.112-0.112s0.112 0.050 0.112 0.112zM5.724 12.493c0 0.062-0.050 0.112-0.112 0.112s-0.112-0.050-0.112-0.112c0-0.062 0.050-0.112 0.112-0.112s0.112 0.050 0.112 0.112zM5.121 9.294c-0 0-0 0 0 0-0.062 0-0.112 0.050-0.112 0.112s0.050 0.112 0.112 0.112c0 0 0 0 0 0 0.062 0 0.112-0.050 0.112-0.112s-0.050-0.112-0.112-0.112zM5.121 10.416c-0 0-0 0 0 0-0.062 0-0.112 0.050-0.112 0.112s0.050 0.112 0.112 0.112c0 0 0 0 0 0 0.062 0 0.112-0.050 0.112-0.112s-0.050-0.112-0.112-0.112zM5.121 9.855c-0 0-0 0 0 0-0.062 0-0.112 0.050-0.112 0.112s0.050 0.112 0.112 0.112c0 0 0 0 0 0 0.062 0 0.112-0.050 0.112-0.112s-0.050-0.112-0.112-0.112zM5.121 10.977c-0 0-0 0 0 0-0.062 0-0.112 0.050-0.112 0.112s0.050 0.112 0.112 0.112c0 0 0 0 0 0 0.062 0 0.112-0.050 0.112-0.112s-0.050-0.112-0.112-0.112zM5.121 11.539c-0 0-0 0 0 0-0.062 0-0.112 0.050-0.112 0.112s0.050 0.112 0.112 0.112c0 0 0 0 0 0 0.062 0 0.112-0.050 0.112-0.112s-0.050-0.112-0.112-0.112zM5.121 12.1c-0 0-0 0 0 0-0.062 0-0.112 0.050-0.112 0.112s0.050 0.112 0.112 0.112c0 0 0 0 0 0 0.062 0 0.112-0.050 0.112-0.112s-0.050-0.112-0.112-0.112zM5.121 12.662c-0 0-0 0 0 0-0.062 0-0.112 0.050-0.112 0.111s0.050 0.112 0.112 0.112c0 0 0 0 0 0 0.062 0 0.112-0.050 0.112-0.112s-0.050-0.111-0.112-0.111zM4.741 12.493c0 0.062-0.050 0.112-0.112 0.112s-0.112-0.050-0.112-0.112c0-0.062 0.050-0.112 0.112-0.112s0.112 0.050 0.112 0.112zM4.741 9.125c0 0.062-0.050 0.112-0.112 0.112s-0.112-0.050-0.112-0.112c0-0.062 0.050-0.112 0.112-0.112s0.112 0.050 0.112 0.112zM4.741 9.686c0 0.062-0.050 0.112-0.112 0.112s-0.112-0.050-0.112-0.112c0-0.062 0.050-0.112 0.112-0.112s0.112 0.050 0.112 0.112zM4.741 10.247c0 0.062-0.050 0.112-0.112 0.112s-0.112-0.050-0.112-0.112c0-0.062 0.050-0.112 0.112-0.112s0.112 0.050 0.112 0.112zM4.741 10.809c0 0.062-0.050 0.112-0.112 0.112s-0.112-0.050-0.112-0.112c0-0.062 0.050-0.112 0.112-0.112s0.112 0.050 0.112 0.112zM4.741 11.37c0 0.062-0.050 0.112-0.112 0.112s-0.112-0.050-0.112-0.112c0-0.062 0.050-0.112 0.112-0.112s0.112 0.050 0.112 0.112zM4.741 11.931c0 0.062-0.050 0.112-0.112 0.112s-0.112-0.050-0.112-0.112c0-0.062 0.050-0.112 0.112-0.112s0.112 0.050 0.112 0.112zM4.25 9.406c0 0.062-0.050 0.112-0.112 0.112s-0.112-0.050-0.112-0.112c0-0.062 0.050-0.112 0.112-0.112s0.112 0.050 0.112 0.112zM4.25 10.528c0 0.062-0.050 0.112-0.112 0.112s-0.112-0.050-0.112-0.112c0-0.062 0.050-0.112 0.112-0.112s0.112 0.050 0.112 0.112zM4.25 9.967c0 0.062-0.050 0.112-0.112 0.112s-0.112-0.050-0.112-0.112c0-0.062 0.050-0.112 0.112-0.112s0.112 0.050 0.112 0.112zM4.25 11.089c0 0.062-0.050 0.112-0.112 0.112s-0.112-0.050-0.112-0.112c0-0.062 0.050-0.112 0.112-0.112s0.112 0.050 0.112 0.112zM4.25 11.651c0 0.062-0.050 0.112-0.112 0.112s-0.112-0.050-0.112-0.112c0-0.062 0.050-0.112 0.112-0.112s0.112 0.050 0.112 0.112zM4.25 12.212c0 0.062-0.050 0.112-0.112 0.112s-0.112-0.050-0.112-0.112c0-0.062 0.050-0.112 0.112-0.112s0.112 0.050 0.112 0.112zM4.25 12.774c0 0.062-0.050 0.112-0.112 0.112s-0.112-0.050-0.112-0.112c0-0.062 0.050-0.112 0.112-0.112s0.112 0.050 0.112 0.112zM3.759 9.125c0 0.062-0.050 0.112-0.112 0.112s-0.112-0.050-0.112-0.112c0-0.062 0.050-0.112 0.112-0.112s0.112 0.050 0.112 0.112zM3.759 9.686c0 0.062-0.050 0.112-0.112 0.112s-0.112-0.050-0.112-0.112c0-0.062 0.050-0.112 0.112-0.112s0.112 0.050 0.112 0.112zM3.759 10.247c0 0.062-0.050 0.112-0.112 0.112s-0.112-0.050-0.112-0.112c0-0.062 0.050-0.112 0.112-0.112s0.112 0.050 0.112 0.112zM3.759 10.809c0 0.062-0.050 0.112-0.112 0.112s-0.112-0.050-0.112-0.112c0-0.062 0.050-0.112 0.112-0.112s0.112 0.050 0.112 0.112zM3.759 11.37c0 0.062-0.050 0.112-0.112 0.112s-0.112-0.050-0.112-0.112c0-0.062 0.050-0.112 0.112-0.112s0.112 0.050 0.112 0.112zM3.759 11.931c0 0.062-0.050 0.112-0.112 0.112s-0.112-0.050-0.112-0.112c0-0.062 0.050-0.112 0.112-0.112s0.112 0.050 0.112 0.112zM3.759 12.493c0 0.062-0.050 0.112-0.112 0.112s-0.112-0.050-0.112-0.112c0-0.062 0.050-0.112 0.112-0.112s0.112 0.050 0.112 0.112zM3.268 9.406c0 0.062-0.050 0.112-0.112 0.112s-0.112-0.050-0.112-0.112c0-0.062 0.050-0.112 0.112-0.112s0.112 0.050 0.112 0.112zM3.268 10.528c0 0.062-0.050 0.112-0.112 0.112s-0.112-0.050-0.112-0.112c0-0.062 0.050-0.112 0.112-0.112s0.112 0.050 0.112 0.112zM3.268 9.967c0 0.062-0.050 0.112-0.112 0.112s-0.112-0.050-0.112-0.112c0-0.062 0.050-0.112 0.112-0.112s0.112 0.050 0.112 0.112zM3.268 11.089c0 0.062-0.050 0.112-0.112 0.112s-0.112-0.050-0.112-0.112c0-0.062 0.050-0.112 0.112-0.112s0.112 0.050 0.112 0.112zM3.268 11.651c0 0.062-0.050 0.112-0.112 0.112s-0.112-0.050-0.112-0.112c0-0.062 0.050-0.112 0.112-0.112s0.112 0.050 0.112 0.112zM3.268 12.212c0 0.062-0.050 0.112-0.112 0.112s-0.112-0.050-0.112-0.112c0-0.062 0.050-0.112 0.112-0.112s0.112 0.050 0.112 0.112zM3.268 12.774c0 0.062-0.050 0.112-0.112 0.112s-0.112-0.050-0.112-0.112c0-0.062 0.050-0.112 0.112-0.112s0.112 0.050 0.112 0.112zM2.777 9.125c0 0.062-0.050 0.112-0.112 0.112s-0.112-0.050-0.112-0.112c0-0.062 0.050-0.112 0.112-0.112s0.112 0.050 0.112 0.112zM2.777 9.686c0 0.062-0.050 0.112-0.112 0.112s-0.112-0.050-0.112-0.112c0-0.062 0.050-0.112 0.112-0.112s0.112 0.050 0.112 0.112zM2.777 10.247c0 0.062-0.050 0.112-0.112 0.112s-0.112-0.050-0.112-0.112c0-0.062 0.050-0.112 0.112-0.112s0.112 0.050 0.112 0.112zM2.777 10.809c0 0.062-0.050 0.112-0.112 0.112s-0.112-0.050-0.112-0.112c0-0.062 0.050-0.112 0.112-0.112s0.112 0.050 0.112 0.112zM2.777 11.37c0 0.062-0.050 0.112-0.112 0.112s-0.112-0.050-0.112-0.112c0-0.062 0.050-0.112 0.112-0.112s0.112 0.050 0.112 0.112zM2.777 11.931c0 0.062-0.050 0.112-0.112 0.112s-0.112-0.050-0.112-0.112c0-0.062 0.050-0.112 0.112-0.112s0.112 0.050 0.112 0.112zM2.777 12.493c0 0.062-0.050 0.112-0.112 0.112s-0.112-0.050-0.112-0.112c0-0.062 0.050-0.112 0.112-0.112s0.112 0.050 0.112 0.112zM2.286 9.406c0 0.062-0.050 0.112-0.112 0.112s-0.112-0.050-0.112-0.112c0-0.062 0.050-0.112 0.112-0.112s0.112 0.050 0.112 0.112zM2.286 10.528c0 0.062-0.050 0.112-0.112 0.112s-0.112-0.050-0.112-0.112c0-0.062 0.050-0.112 0.112-0.112s0.112 0.050 0.112 0.112zM2.286 9.967c0 0.062-0.050 0.112-0.112 0.112s-0.112-0.050-0.112-0.112c0-0.062 0.050-0.112 0.112-0.112s0.112 0.050 0.112 0.112zM2.286 11.089c0 0.062-0.050 0.112-0.112 0.112s-0.112-0.050-0.112-0.112c0-0.062 0.050-0.112 0.112-0.112s0.112 0.050 0.112 0.112zM2.286 11.651c0 0.062-0.050 0.112-0.112 0.112s-0.112-0.050-0.112-0.112c0-0.062 0.050-0.112 0.112-0.112s0.112 0.050 0.112 0.112zM2.286 12.212c0 0.062-0.050 0.112-0.112 0.112s-0.112-0.050-0.112-0.112c0-0.062 0.050-0.112 0.112-0.112s0.112 0.050 0.112 0.112zM2.286 12.774c0 0.062-0.050 0.112-0.112 0.112s-0.112-0.050-0.112-0.112c0-0.062 0.050-0.112 0.112-0.112s0.112 0.050 0.112 0.112zM1.795 9.125c0 0.062-0.050 0.112-0.112 0.112s-0.112-0.050-0.112-0.112c0-0.062 0.050-0.112 0.112-0.112s0.112 0.050 0.112 0.112zM1.795 9.686c0 0.062-0.050 0.112-0.112 0.112s-0.112-0.050-0.112-0.112c0-0.062 0.050-0.112 0.112-0.112s0.112 0.050 0.112 0.112zM1.795 10.247c0 0.062-0.050 0.112-0.112 0.112s-0.112-0.050-0.112-0.112c0-0.062 0.050-0.112 0.112-0.112s0.112 0.050 0.112 0.112zM1.795 10.809c0 0.062-0.050 0.112-0.112 0.112s-0.112-0.050-0.112-0.112c0-0.062 0.050-0.112 0.112-0.112s0.112 0.050 0.112 0.112zM1.795 11.37c0 0.062-0.050 0.112-0.112 0.112s-0.112-0.050-0.112-0.112c0-0.062 0.050-0.112 0.112-0.112s0.112 0.050 0.112 0.112zM1.795 11.931c0 0.062-0.050 0.112-0.112 0.112s-0.112-0.050-0.112-0.112c0-0.062 0.050-0.112 0.112-0.112s0.112 0.050 0.112 0.112zM1.795 12.493c0 0.062-0.050 0.112-0.112 0.112s-0.112-0.050-0.112-0.112c0-0.062 0.050-0.112 0.112-0.112s0.112 0.050 0.112 0.112zM1.303 9.406c0 0.062-0.050 0.112-0.112 0.112s-0.112-0.050-0.112-0.112c0-0.062 0.050-0.112 0.112-0.112s0.112 0.050 0.112 0.112zM1.303 10.528c0 0.062-0.050 0.112-0.112 0.112s-0.112-0.050-0.112-0.112c0-0.062 0.050-0.112 0.112-0.112s0.112 0.050 0.112 0.112zM1.304 9.967c0 0.062-0.050 0.112-0.112 0.112s-0.112-0.050-0.112-0.112c0-0.062 0.050-0.112 0.112-0.112s0.112 0.050 0.112 0.112zM1.303 11.089c0 0.062-0.050 0.112-0.112 0.112s-0.112-0.050-0.112-0.112c0-0.062 0.050-0.112 0.112-0.112s0.112 0.050 0.112 0.112zM1.303 11.651c0 0.062-0.050 0.112-0.112 0.112s-0.112-0.050-0.112-0.112c0-0.062 0.050-0.112 0.112-0.112s0.112 0.050 0.112 0.112zM1.304 12.212c0 0.062-0.050 0.112-0.112 0.112s-0.112-0.050-0.112-0.112c0-0.062 0.050-0.112 0.112-0.112s0.112 0.050 0.112 0.112zM1.303 12.774c0 0.062-0.050 0.112-0.112 0.112s-0.112-0.050-0.112-0.112c0-0.062 0.050-0.112 0.112-0.112s0.112 0.050 0.112 0.112zM7.688 14.738c0 0.062-0.050 0.112-0.112 0.112s-0.112-0.050-0.112-0.112c0-0.062 0.050-0.112 0.112-0.112s0.112 0.050 0.112 0.112zM7.688 15.299c0 0.062-0.050 0.112-0.112 0.112s-0.112-0.050-0.112-0.112c0-0.062 0.050-0.112 0.112-0.112s0.112 0.050 0.112 0.112zM7.688 15.86c0 0.062-0.050 0.112-0.112 0.112s-0.112-0.050-0.112-0.112c0-0.062 0.050-0.112 0.112-0.112s0.112 0.050 0.112 0.112zM7.688 16.422c0 0.062-0.050 0.112-0.112 0.112s-0.112-0.050-0.112-0.112c0-0.062 0.050-0.112 0.112-0.112s0.112 0.050 0.112 0.112zM7.197 13.335c0 0.062-0.050 0.112-0.112 0.112s-0.112-0.050-0.112-0.112c0-0.062 0.050-0.112 0.112-0.112s0.112 0.050 0.112 0.112zM7.197 14.457c0 0.062-0.050 0.112-0.112 0.112s-0.112-0.050-0.112-0.112c0-0.062 0.050-0.112 0.112-0.112s0.112 0.050 0.112 0.112zM7.197 13.896c0 0.062-0.050 0.112-0.112 0.112s-0.112-0.050-0.112-0.112c0-0.062 0.050-0.112 0.112-0.112s0.112 0.050 0.112 0.112zM7.197 15.019c0 0.062-0.050 0.112-0.112 0.112s-0.112-0.050-0.112-0.112c0-0.062 0.050-0.112 0.112-0.112s0.112 0.050 0.112 0.112zM7.197 15.58c0 0.062-0.050 0.112-0.112 0.112s-0.112-0.050-0.112-0.112c0-0.062 0.050-0.112 0.112-0.112s0.112 0.050 0.112 0.112zM7.197 16.141c0 0.062-0.050 0.112-0.112 0.112s-0.112-0.050-0.112-0.112c0-0.062 0.050-0.112 0.112-0.112s0.112 0.050 0.112 0.112zM7.197 16.702c0 0.062-0.050 0.112-0.112 0.112s-0.112-0.050-0.112-0.112c0-0.062 0.050-0.112 0.112-0.112s0.112 0.050 0.112 0.112zM6.706 13.054c0 0.062-0.050 0.112-0.112 0.112s-0.112-0.050-0.112-0.112c0-0.062 0.050-0.112 0.112-0.112s0.112 0.050 0.112 0.112zM6.706 13.615c0 0.062-0.050 0.112-0.112 0.112s-0.112-0.050-0.112-0.112c0-0.062 0.050-0.112 0.112-0.112s0.112 0.050 0.112 0.112zM6.706 14.177c0 0.062-0.050 0.112-0.112 0.112s-0.112-0.050-0.112-0.112c0-0.062 0.050-0.112 0.112-0.112s0.112 0.050 0.112 0.112zM6.706 14.738c0 0.062-0.050 0.112-0.112 0.112s-0.112-0.050-0.112-0.112c0-0.062 0.050-0.112 0.112-0.112s0.112 0.050 0.112 0.112zM6.706 15.299c0 0.062-0.050 0.112-0.112 0.112s-0.112-0.050-0.112-0.112c0-0.062 0.050-0.112 0.112-0.112s0.112 0.050 0.112 0.112zM6.706 15.86c0 0.062-0.050 0.112-0.112 0.112s-0.112-0.050-0.112-0.112c0-0.062 0.050-0.112 0.112-0.112s0.112 0.050 0.112 0.112zM6.706 16.422c0 0.062-0.050 0.112-0.112 0.112s-0.112-0.050-0.112-0.112c0-0.062 0.050-0.112 0.112-0.112s0.112 0.050 0.112 0.112zM6.215 13.335c0 0.062-0.050 0.112-0.112 0.112s-0.112-0.050-0.112-0.112c0-0.062 0.050-0.112 0.112-0.112s0.112 0.050 0.112 0.112zM6.215 14.457c0 0.062-0.050 0.112-0.112 0.112s-0.112-0.050-0.112-0.112c0-0.062 0.050-0.112 0.112-0.112s0.112 0.050 0.112 0.112zM6.215 13.896c0 0.062-0.050 0.112-0.112 0.112s-0.112-0.050-0.112-0.112c0-0.062 0.050-0.112 0.112-0.112s0.112 0.050 0.112 0.112zM6.215 15.019c0 0.062-0.050 0.112-0.112 0.112s-0.112-0.050-0.112-0.112c0-0.062 0.050-0.112 0.112-0.112s0.112 0.050 0.112 0.112zM6.215 15.58c0 0.062-0.050 0.112-0.112 0.112s-0.112-0.050-0.112-0.112c0-0.062 0.050-0.112 0.112-0.112s0.112 0.050 0.112 0.112zM6.215 16.141c0 0.062-0.050 0.112-0.112 0.112s-0.112-0.050-0.112-0.112c0-0.062 0.050-0.112 0.112-0.112s0.112 0.050 0.112 0.112zM6.215 16.702c0 0.062-0.050 0.112-0.112 0.112s-0.112-0.050-0.112-0.112c0-0.062 0.050-0.112 0.112-0.112s0.112 0.050 0.112 0.112zM5.724 13.054c0 0.062-0.050 0.112-0.112 0.112s-0.112-0.050-0.112-0.112c0-0.062 0.050-0.112 0.112-0.112s0.112 0.050 0.112 0.112zM5.724 13.615c0 0.062-0.050 0.112-0.112 0.112s-0.112-0.050-0.112-0.112c0-0.062 0.050-0.112 0.112-0.112s0.112 0.050 0.112 0.112zM5.724 14.177c0 0.062-0.050 0.112-0.112 0.112s-0.112-0.050-0.112-0.112c0-0.062 0.050-0.112 0.112-0.112s0.112 0.050 0.112 0.112zM5.724 14.738c0 0.062-0.050 0.112-0.112 0.112s-0.112-0.050-0.112-0.112c0-0.062 0.050-0.112 0.112-0.112s0.112 0.050 0.112 0.112zM5.724 15.299c0 0.062-0.050 0.112-0.112 0.112s-0.112-0.050-0.112-0.112c0-0.062 0.050-0.112 0.112-0.112s0.112 0.050 0.112 0.112zM5.724 15.86c0 0.062-0.050 0.112-0.112 0.112s-0.112-0.050-0.112-0.112c0-0.062 0.050-0.112 0.112-0.112s0.112 0.050 0.112 0.112zM5.724 16.422c0 0.062-0.050 0.112-0.112 0.112s-0.112-0.050-0.112-0.112c0-0.062 0.050-0.112 0.112-0.112s0.112 0.050 0.112 0.112zM5.121 13.222c-0 0-0 0 0 0-0.062 0-0.112 0.050-0.112 0.112s0.050 0.112 0.112 0.112c0 0 0 0 0 0 0.062 0 0.112-0.050 0.112-0.112s-0.050-0.112-0.112-0.112zM5.121 14.345c-0 0-0 0 0 0-0.062 0-0.112 0.050-0.112 0.112s0.050 0.111 0.112 0.111c0 0 0 0 0 0 0.062 0 0.112-0.050 0.112-0.111s-0.050-0.112-0.112-0.112zM5.121 13.784c-0 0-0 0 0 0-0.062 0-0.112 0.050-0.112 0.112s0.050 0.112 0.112 0.112c0 0 0 0 0 0 0.062 0 0.112-0.050 0.112-0.112s-0.050-0.112-0.112-0.112zM5.121 14.907c-0 0-0 0 0 0-0.062 0-0.112 0.050-0.112 0.111s0.050 0.112 0.112 0.112c0 0 0 0 0 0 0.062 0 0.112-0.050 0.112-0.112s-0.050-0.111-0.112-0.111zM5.121 15.468c-0 0-0 0 0 0-0.062 0-0.112 0.050-0.112 0.112s0.050 0.112 0.112 0.112c0 0 0 0 0 0 0.062 0 0.112-0.050 0.112-0.112s-0.050-0.112-0.112-0.112zM5.121 16.029c-0 0-0 0 0 0-0.062 0-0.112 0.050-0.112 0.112s0.050 0.112 0.112 0.112c0 0 0 0 0 0 0.062 0 0.112-0.050 0.112-0.112s-0.050-0.112-0.112-0.112zM5.121 16.59c-0 0-0 0 0 0-0.062 0-0.112 0.050-0.112 0.112s0.050 0.112 0.112 0.112c0 0 0 0 0 0 0.062 0 0.112-0.050 0.112-0.112s-0.050-0.112-0.112-0.112zM7.688 16.983c0 0.062-0.050 0.112-0.112 0.112s-0.112-0.050-0.112-0.112c0-0.062 0.050-0.112 0.112-0.112s0.112 0.050 0.112 0.112zM7.688 17.544c0 0.062-0.050 0.112-0.112 0.112s-0.112-0.050-0.112-0.112c0-0.062 0.050-0.112 0.112-0.112s0.112 0.050 0.112 0.112zM7.197 17.264c0 0.062-0.050 0.112-0.112 0.112s-0.112-0.050-0.112-0.112c0-0.062 0.050-0.112 0.112-0.112s0.112 0.050 0.112 0.112zM6.706 16.983c0 0.062-0.050 0.112-0.112 0.112s-0.112-0.050-0.112-0.112c0-0.062 0.050-0.112 0.112-0.112s0.112 0.050 0.112 0.112zM6.706 17.544c0 0.062-0.050 0.112-0.112 0.112s-0.112-0.050-0.112-0.112c0-0.062 0.050-0.112 0.112-0.112s0.112 0.050 0.112 0.112zM6.215 17.264c0 0.062-0.050 0.112-0.112 0.112s-0.112-0.050-0.112-0.112c0-0.062 0.050-0.112 0.112-0.112s0.112 0.050 0.112 0.112zM5.724 16.983c0 0.062-0.050 0.112-0.112 0.112s-0.112-0.050-0.112-0.112c0-0.062 0.050-0.112 0.112-0.112s0.112 0.050 0.112 0.112zM5.724 17.544c0 0.062-0.050 0.112-0.112 0.112s-0.112-0.050-0.112-0.112c0-0.062 0.050-0.112 0.112-0.112s0.112 0.050 0.112 0.112zM5.121 17.152c-0 0-0 0 0 0-0.062 0-0.112 0.050-0.112 0.112s0.050 0.112 0.112 0.112c0 0 0 0 0 0 0.062 0 0.112-0.050 0.112-0.112s-0.050-0.112-0.112-0.112zM4.741 16.422c0 0.062-0.050 0.112-0.112 0.112s-0.112-0.050-0.112-0.112c0-0.062 0.050-0.112 0.112-0.112s0.112 0.050 0.112 0.112zM4.741 13.054c0 0.062-0.050 0.112-0.112 0.112s-0.112-0.050-0.112-0.112c0-0.062 0.050-0.112 0.112-0.112s0.112 0.050 0.112 0.112zM4.741 13.615c0 0.062-0.050 0.112-0.112 0.112s-0.112-0.050-0.112-0.112c0-0.062 0.050-0.112 0.112-0.112s0.112 0.050 0.112 0.112zM4.741 14.177c0 0.062-0.050 0.112-0.112 0.112s-0.112-0.050-0.112-0.112c0-0.062 0.050-0.112 0.112-0.112s0.112 0.050 0.112 0.112zM4.741 14.738c0 0.062-0.050 0.112-0.112 0.112s-0.112-0.050-0.112-0.112c0-0.062 0.050-0.112 0.112-0.112s0.112 0.050 0.112 0.112zM4.741 15.299c0 0.062-0.050 0.112-0.112 0.112s-0.112-0.050-0.112-0.112c0-0.062 0.050-0.112 0.112-0.112s0.112 0.050 0.112 0.112zM4.741 15.86c0 0.062-0.050 0.112-0.112 0.112s-0.112-0.050-0.112-0.112c0-0.062 0.050-0.112 0.112-0.112s0.112 0.050 0.112 0.112zM4.25 13.335c0 0.062-0.050 0.112-0.112 0.112s-0.112-0.050-0.112-0.112c0-0.062 0.050-0.112 0.112-0.112s0.112 0.050 0.112 0.112zM4.25 14.457c0 0.062-0.050 0.112-0.112 0.112s-0.112-0.050-0.112-0.112c0-0.062 0.050-0.112 0.112-0.112s0.112 0.050 0.112 0.112zM4.25 13.896c0 0.062-0.050 0.112-0.112 0.112s-0.112-0.050-0.112-0.112c0-0.062 0.050-0.112 0.112-0.112s0.112 0.050 0.112 0.112zM4.25 15.019c0 0.062-0.050 0.112-0.112 0.112s-0.112-0.050-0.112-0.112c0-0.062 0.050-0.112 0.112-0.112s0.112 0.050 0.112 0.112zM4.25 15.58c0 0.062-0.050 0.112-0.112 0.112s-0.112-0.050-0.112-0.112c0-0.062 0.050-0.112 0.112-0.112s0.112 0.050 0.112 0.112zM4.25 16.141c0 0.062-0.050 0.112-0.112 0.112s-0.112-0.050-0.112-0.112c0-0.062 0.050-0.112 0.112-0.112s0.112 0.050 0.112 0.112zM4.25 16.702c0 0.062-0.050 0.112-0.112 0.112s-0.112-0.050-0.112-0.112c0-0.062 0.050-0.112 0.112-0.112s0.112 0.050 0.112 0.112zM3.759 13.054c0 0.062-0.050 0.112-0.112 0.112s-0.112-0.050-0.112-0.112c0-0.062 0.050-0.112 0.112-0.112s0.112 0.050 0.112 0.112zM3.759 13.615c0 0.062-0.050 0.112-0.112 0.112s-0.112-0.050-0.112-0.112c0-0.062 0.050-0.112 0.112-0.112s0.112 0.050 0.112 0.112zM3.759 14.177c0 0.062-0.050 0.112-0.112 0.112s-0.112-0.050-0.112-0.112c0-0.062 0.050-0.112 0.112-0.112s0.112 0.050 0.112 0.112zM3.759 14.738c0 0.062-0.050 0.112-0.112 0.112s-0.112-0.050-0.112-0.112c0-0.062 0.050-0.112 0.112-0.112s0.112 0.050 0.112 0.112zM3.759 15.299c0 0.062-0.050 0.112-0.112 0.112s-0.112-0.050-0.112-0.112c0-0.062 0.050-0.112 0.112-0.112s0.112 0.050 0.112 0.112zM3.759 15.86c0 0.062-0.050 0.112-0.112 0.112s-0.112-0.050-0.112-0.112c0-0.062 0.050-0.112 0.112-0.112s0.112 0.050 0.112 0.112zM3.759 16.422c0 0.062-0.050 0.112-0.112 0.112s-0.112-0.050-0.112-0.112c0-0.062 0.050-0.112 0.112-0.112s0.112 0.050 0.112 0.112zM3.268 13.335c0 0.062-0.050 0.112-0.112 0.112s-0.112-0.050-0.112-0.112c0-0.062 0.050-0.112 0.112-0.112s0.112 0.050 0.112 0.112zM3.268 14.457c0 0.062-0.050 0.112-0.112 0.112s-0.112-0.050-0.112-0.112c0-0.062 0.050-0.112 0.112-0.112s0.112 0.050 0.112 0.112zM3.268 13.896c0 0.062-0.050 0.112-0.112 0.112s-0.112-0.050-0.112-0.112c0-0.062 0.050-0.112 0.112-0.112s0.112 0.050 0.112 0.112zM3.268 15.019c0 0.062-0.050 0.112-0.112 0.112s-0.112-0.050-0.112-0.112c0-0.062 0.050-0.112 0.112-0.112s0.112 0.050 0.112 0.112zM3.268 15.58c0 0.062-0.050 0.112-0.112 0.112s-0.112-0.050-0.112-0.112c0-0.062 0.050-0.112 0.112-0.112s0.112 0.050 0.112 0.112zM3.268 16.141c0 0.062-0.050 0.112-0.112 0.112s-0.112-0.050-0.112-0.112c0-0.062 0.050-0.112 0.112-0.112s0.112 0.050 0.112 0.112zM3.268 16.702c0 0.062-0.050 0.112-0.112 0.112s-0.112-0.050-0.112-0.112c0-0.062 0.050-0.112 0.112-0.112s0.112 0.050 0.112 0.112zM2.777 13.054c0 0.062-0.050 0.112-0.112 0.112s-0.112-0.050-0.112-0.112c0-0.062 0.050-0.112 0.112-0.112s0.112 0.050 0.112 0.112zM2.777 13.615c0 0.062-0.050 0.112-0.112 0.112s-0.112-0.050-0.112-0.112c0-0.062 0.050-0.112 0.112-0.112s0.112 0.050 0.112 0.112zM2.777 14.177c0 0.062-0.050 0.112-0.112 0.112s-0.112-0.050-0.112-0.112c0-0.062 0.050-0.112 0.112-0.112s0.112 0.050 0.112 0.112zM2.777 14.738c0 0.062-0.050 0.112-0.112 0.112s-0.112-0.050-0.112-0.112c0-0.062 0.050-0.112 0.112-0.112s0.112 0.050 0.112 0.112zM2.777 15.299c0 0.062-0.050 0.112-0.112 0.112s-0.112-0.050-0.112-0.112c0-0.062 0.050-0.112 0.112-0.112s0.112 0.050 0.112 0.112zM2.777 15.86c0 0.062-0.050 0.112-0.112 0.112s-0.112-0.050-0.112-0.112c0-0.062 0.050-0.112 0.112-0.112s0.112 0.050 0.112 0.112zM2.777 16.422c0 0.062-0.050 0.112-0.112 0.112s-0.112-0.050-0.112-0.112c0-0.062 0.050-0.112 0.112-0.112s0.112 0.050 0.112 0.112zM2.286 13.335c0 0.062-0.050 0.112-0.112 0.112s-0.112-0.050-0.112-0.112c0-0.062 0.050-0.112 0.112-0.112s0.112 0.050 0.112 0.112zM2.286 14.457c0 0.062-0.050 0.112-0.112 0.112s-0.112-0.050-0.112-0.112c0-0.062 0.050-0.112 0.112-0.112s0.112 0.050 0.112 0.112zM2.286 13.896c0 0.062-0.050 0.112-0.112 0.112s-0.112-0.050-0.112-0.112c0-0.062 0.050-0.112 0.112-0.112s0.112 0.050 0.112 0.112zM2.286 15.019c0 0.062-0.050 0.112-0.112 0.112s-0.112-0.050-0.112-0.112c0-0.062 0.050-0.112 0.112-0.112s0.112 0.050 0.112 0.112zM2.286 15.58c0 0.062-0.050 0.112-0.112 0.112s-0.112-0.050-0.112-0.112c0-0.062 0.050-0.112 0.112-0.112s0.112 0.050 0.112 0.112zM2.286 16.141c0 0.062-0.050 0.112-0.112 0.112s-0.112-0.050-0.112-0.112c0-0.062 0.050-0.112 0.112-0.112s0.112 0.050 0.112 0.112zM2.286 16.702c0 0.062-0.050 0.112-0.112 0.112s-0.112-0.050-0.112-0.112c0-0.062 0.050-0.112 0.112-0.112s0.112 0.050 0.112 0.112zM1.795 13.054c0 0.062-0.050 0.112-0.112 0.112s-0.112-0.050-0.112-0.112c0-0.062 0.050-0.112 0.112-0.112s0.112 0.050 0.112 0.112zM1.795 13.615c0 0.062-0.050 0.112-0.112 0.112s-0.112-0.050-0.112-0.112c0-0.062 0.050-0.112 0.112-0.112s0.112 0.050 0.112 0.112zM1.795 14.177c0 0.062-0.050 0.112-0.112 0.112s-0.112-0.050-0.112-0.112c0-0.062 0.050-0.112 0.112-0.112s0.112 0.050 0.112 0.112zM1.795 14.738c0 0.062-0.050 0.112-0.112 0.112s-0.112-0.050-0.112-0.112c0-0.062 0.050-0.112 0.112-0.112s0.112 0.050 0.112 0.112zM1.795 15.299c0 0.062-0.050 0.112-0.112 0.112s-0.112-0.050-0.112-0.112c0-0.062 0.050-0.112 0.112-0.112s0.112 0.050 0.112 0.112zM1.795 15.86c0 0.062-0.050 0.112-0.112 0.112s-0.112-0.050-0.112-0.112c0-0.062 0.050-0.112 0.112-0.112s0.112 0.050 0.112 0.112zM1.795 16.422c0 0.062-0.050 0.112-0.112 0.112s-0.112-0.050-0.112-0.112c0-0.062 0.050-0.112 0.112-0.112s0.112 0.050 0.112 0.112zM1.304 13.335c0 0.062-0.050 0.112-0.112 0.112s-0.112-0.050-0.112-0.112c0-0.062 0.050-0.112 0.112-0.112s0.112 0.050 0.112 0.112zM1.303 14.457c0 0.062-0.050 0.112-0.112 0.112s-0.112-0.050-0.112-0.112c0-0.062 0.050-0.112 0.112-0.112s0.112 0.050 0.112 0.112zM1.303 13.896c0 0.062-0.050 0.112-0.112 0.112s-0.112-0.050-0.112-0.112c0-0.062 0.050-0.112 0.112-0.112s0.112 0.050 0.112 0.112zM1.303 15.019c0 0.062-0.050 0.112-0.112 0.112s-0.112-0.050-0.112-0.112c0-0.062 0.050-0.112 0.112-0.112s0.112 0.050 0.112 0.112zM1.303 15.58c0 0.062-0.050 0.112-0.112 0.112s-0.112-0.050-0.112-0.112c0-0.062 0.050-0.112 0.112-0.112s0.112 0.050 0.112 0.112zM1.303 16.141c0 0.062-0.050 0.112-0.112 0.112s-0.112-0.050-0.112-0.112c0-0.062 0.050-0.112 0.112-0.112s0.112 0.050 0.112 0.112zM1.303 16.702c0 0.062-0.050 0.112-0.112 0.112s-0.112-0.050-0.112-0.112c0-0.062 0.050-0.112 0.112-0.112s0.112 0.050 0.112 0.112zM4.741 16.983c0 0.062-0.050 0.112-0.112 0.112s-0.112-0.050-0.112-0.112c0-0.062 0.050-0.112 0.112-0.112s0.112 0.050 0.112 0.112zM4.741 17.544c0 0.062-0.050 0.112-0.112 0.112s-0.112-0.050-0.112-0.112c0-0.062 0.050-0.112 0.112-0.112s0.112 0.050 0.112 0.112zM4.25 17.264c0 0.062-0.050 0.112-0.112 0.112s-0.112-0.050-0.112-0.112c0-0.062 0.050-0.112 0.112-0.112s0.112 0.050 0.112 0.112zM3.759 16.983c0 0.062-0.050 0.112-0.112 0.112s-0.112-0.050-0.112-0.112c0-0.062 0.050-0.112 0.112-0.112s0.112 0.050 0.112 0.112zM3.759 17.544c0 0.062-0.050 0.112-0.112 0.112s-0.112-0.050-0.112-0.112c0-0.062 0.050-0.112 0.112-0.112s0.112 0.050 0.112 0.112zM3.268 17.264c0 0.062-0.050 0.112-0.112 0.112s-0.112-0.050-0.112-0.112c0-0.062 0.050-0.112 0.112-0.112s0.112 0.050 0.112 0.112zM2.777 16.983c0 0.062-0.050 0.112-0.112 0.112s-0.112-0.050-0.112-0.112c0-0.062 0.050-0.112 0.112-0.112s0.112 0.050 0.112 0.112zM2.777 17.544c0 0.062-0.050 0.112-0.112 0.112s-0.112-0.050-0.112-0.112c0-0.062 0.050-0.112 0.112-0.112s0.112 0.050 0.112 0.112zM2.286 17.264c0 0.062-0.050 0.112-0.112 0.112s-0.112-0.050-0.112-0.112c0-0.062 0.050-0.112 0.112-0.112s0.112 0.050 0.112 0.112zM1.795 16.983c0 0.062-0.050 0.112-0.112 0.112s-0.112-0.050-0.112-0.112c0-0.062 0.050-0.112 0.112-0.112s0.112 0.050 0.112 0.112zM1.795 17.544c0 0.062-0.050 0.112-0.112 0.112s-0.112-0.050-0.112-0.112c0-0.062 0.050-0.112 0.112-0.112s0.112 0.050 0.112 0.112zM1.303 17.264c0 0.062-0.050 0.112-0.112 0.112s-0.112-0.050-0.112-0.112c0-0.062 0.050-0.112 0.112-0.112s0.112 0.050 0.112 0.112z"></path>
</svg>
